<svg xmlns="http://www.w3.org/2000/svg" xmlns:xlink="http://www.w3.org/1999/xlink" width="500" zoomAndPan="magnify" viewBox="0 0 375 374.999991" height="500" preserveAspectRatio="xMidYMid meet" version="1.0"><defs><clipPath id="6b2d41f17c"><path d="M 105.621094 70.703125 L 281 70.703125 L 281 276.203125 L 105.621094 276.203125 Z M 105.621094 70.703125 " clip-rule="nonzero"/></clipPath></defs><g clip-path="url(#6b2d41f17c)"><path fill="#000000" d="M 171.542969 258.082031 L 114.644531 258.082031 C 109.730469 258.082031 105.707031 254.0625 105.707031 249.121094 L 105.707031 99.945312 C 105.707031 95.007812 109.714844 90.988281 114.644531 90.988281 L 139.40625 90.988281 L 139.40625 86.535156 C 139.40625 84.925781 140.703125 83.621094 142.308594 83.621094 C 142.308594 83.621094 155.550781 83.621094 155.550781 83.621094 C 156.914062 76.265625 163.339844 70.703125 171.066406 70.703125 C 178.789062 70.703125 185.226562 76.265625 186.589844 83.621094 L 199.832031 83.621094 C 201.4375 83.621094 202.738281 84.925781 202.738281 86.535156 L 202.738281 90.988281 L 227.488281 90.988281 C 232.414062 90.988281 236.421875 95.007812 236.421875 99.945312 L 236.421875 210.632812 L 264.316406 210.632812 C 265.210938 210.632812 266.042969 211.042969 266.589844 211.730469 C 266.832031 212.035156 267.015625 212.390625 267.117188 212.773438 L 280.804688 262.820312 C 281.027344 263.632812 280.886719 264.5 280.421875 265.199219 C 279.957031 265.902344 279.214844 266.367188 278.382812 266.476562 L 267.472656 267.910156 L 252.066406 275.878906 C 251.65625 276.089844 251.199219 276.203125 250.734375 276.203125 L 171.066406 276.203125 C 170.179688 276.203125 169.347656 275.796875 168.792969 275.105469 C 168.242188 274.414062 168.039062 273.507812 168.234375 272.640625 Z M 248.417969 270.378906 L 257.332031 231.167969 L 183.621094 231.167969 L 174.707031 270.378906 Z M 183.621094 259.03125 C 182.019531 259.03125 180.71875 257.726562 180.71875 256.121094 C 180.71875 254.511719 182.019531 253.207031 183.621094 253.207031 L 191.621094 253.207031 C 193.222656 253.207031 194.523438 254.511719 194.523438 256.121094 C 194.523438 257.726562 193.222656 259.03125 191.621094 259.03125 Z M 204.710938 244.5625 C 203.109375 244.5625 201.808594 243.257812 201.808594 241.652344 C 201.808594 240.042969 203.109375 238.738281 204.710938 238.738281 L 212.710938 238.738281 C 214.3125 238.738281 215.613281 240.042969 215.613281 241.652344 C 215.613281 243.257812 214.3125 244.5625 212.710938 244.5625 Z M 240.632812 244.5625 C 239.03125 244.5625 237.730469 243.257812 237.730469 241.652344 C 237.730469 240.042969 239.03125 238.738281 240.632812 238.738281 L 248.632812 238.738281 C 250.234375 238.738281 251.535156 240.042969 251.535156 241.652344 C 251.535156 243.257812 250.234375 244.5625 248.632812 244.5625 Z M 237.503906 259.03125 C 235.902344 259.03125 234.597656 257.726562 234.597656 256.121094 C 234.597656 254.511719 235.902344 253.207031 237.503906 253.207031 L 245.5 253.207031 C 247.105469 253.207031 248.40625 254.511719 248.40625 256.121094 C 248.40625 257.726562 247.105469 259.03125 245.5 259.03125 Z M 219.542969 259.03125 C 217.941406 259.03125 216.640625 257.726562 216.640625 256.121094 C 216.640625 254.511719 217.941406 253.207031 219.542969 253.207031 L 227.539062 253.207031 C 229.144531 253.207031 230.445312 254.511719 230.445312 256.121094 C 230.445312 257.726562 229.144531 259.03125 227.539062 259.03125 Z M 222.671875 244.5625 C 221.070312 244.5625 219.769531 243.257812 219.769531 241.652344 C 219.769531 240.042969 221.070312 238.738281 222.671875 238.738281 L 230.671875 238.738281 C 232.273438 238.738281 233.574219 240.042969 233.574219 241.652344 C 233.574219 243.257812 232.273438 244.5625 230.671875 244.5625 Z M 186.75 244.5625 C 185.148438 244.5625 183.847656 243.257812 183.847656 241.652344 C 183.847656 240.042969 185.148438 238.738281 186.75 238.738281 L 194.75 238.738281 C 196.351562 238.738281 197.652344 240.042969 197.652344 241.652344 C 197.652344 243.257812 196.351562 244.5625 194.75 244.5625 Z M 201.582031 259.03125 C 199.980469 259.03125 198.679688 257.726562 198.679688 256.121094 C 198.679688 254.511719 199.980469 253.207031 201.582031 253.207031 L 209.582031 253.207031 C 211.183594 253.207031 212.484375 254.511719 212.484375 256.121094 C 212.484375 257.726562 211.183594 259.03125 209.582031 259.03125 Z M 264.578125 225.503906 L 254.953125 267.832031 L 265.261719 262.5 C 265.558594 262.347656 265.882812 262.246094 266.214844 262.203125 C 266.214844 262.203125 274.320312 261.136719 274.320312 261.136719 Z M 139.40625 96.8125 L 114.644531 96.8125 C 112.917969 96.8125 111.515625 98.21875 111.515625 99.945312 L 111.515625 249.121094 C 111.515625 250.851562 112.925781 252.257812 114.644531 252.257812 L 172.867188 252.257812 L 174.292969 245.984375 L 120.675781 245.984375 C 119.070312 245.984375 117.769531 244.683594 117.769531 243.074219 L 117.769531 105.992188 C 117.769531 104.386719 119.070312 103.082031 120.675781 103.082031 L 139.40625 103.082031 Z M 260.675781 216.457031 L 186.964844 216.457031 L 184.945312 225.347656 L 258.65625 225.347656 Z M 196.929688 103.082031 L 196.929688 89.445312 L 183.953125 89.445312 C 182.347656 89.445312 181.046875 88.140625 181.046875 86.535156 C 181.046875 81.003906 176.574219 76.527344 171.066406 76.527344 C 165.558594 76.527344 161.09375 81.003906 161.09375 86.535156 C 161.09375 88.140625 159.792969 89.445312 158.191406 89.445312 L 145.214844 89.445312 L 145.214844 103.082031 Z M 171.066406 89.933594 C 169.195312 89.933594 167.675781 88.410156 167.675781 86.535156 C 167.675781 84.65625 169.195312 83.125 171.066406 83.125 C 172.9375 83.125 174.464844 84.65625 174.464844 86.535156 C 174.464844 88.410156 172.9375 89.933594 171.066406 89.933594 Z M 230.613281 210.632812 L 230.613281 99.945312 C 230.613281 98.21875 229.210938 96.8125 227.488281 96.8125 L 202.738281 96.8125 L 202.738281 103.082031 L 221.457031 103.082031 C 223.058594 103.082031 224.359375 104.386719 224.359375 105.992188 L 224.359375 210.632812 Z M 218.550781 108.90625 L 123.578125 108.90625 L 123.578125 240.164062 L 175.617188 240.164062 L 181.816406 212.898438 C 182.117188 211.574219 183.292969 210.632812 184.648438 210.632812 L 218.550781 210.632812 C 218.550781 193.722656 218.550781 108.90625 218.550781 108.90625 Z M 160.445312 155.519531 L 151.59375 155.519531 C 149.992188 155.519531 148.691406 154.214844 148.691406 152.605469 L 148.691406 137.132812 C 148.691406 135.523438 149.992188 134.222656 151.59375 134.222656 L 160.445312 134.222656 L 160.445312 125.351562 C 160.445312 123.742188 161.746094 122.4375 163.347656 122.4375 L 178.78125 122.4375 C 180.386719 122.4375 181.6875 123.742188 181.6875 125.351562 L 181.6875 134.222656 L 190.535156 134.222656 C 192.140625 134.222656 193.441406 135.523438 193.441406 137.132812 L 193.441406 152.605469 C 193.441406 154.214844 192.140625 155.519531 190.535156 155.519531 L 181.6875 155.519531 L 181.6875 164.390625 C 181.6875 166 180.386719 167.304688 178.78125 167.304688 L 163.347656 167.304688 C 161.746094 167.304688 160.445312 166 160.445312 164.390625 Z M 166.253906 152.605469 L 166.253906 161.480469 L 175.878906 161.480469 L 175.878906 152.605469 C 175.878906 151 177.179688 149.695312 178.78125 149.695312 L 187.632812 149.695312 L 187.632812 140.046875 L 178.78125 140.046875 C 177.179688 140.046875 175.878906 138.742188 175.878906 137.132812 L 175.878906 128.261719 L 166.253906 128.261719 L 166.253906 137.132812 C 166.253906 138.742188 164.953125 140.046875 163.347656 140.046875 L 154.5 140.046875 L 154.5 149.695312 L 163.347656 149.695312 C 164.953125 149.695312 166.253906 151 166.253906 152.605469 Z M 149.285156 201.371094 C 147.683594 201.371094 146.382812 200.066406 146.382812 198.460938 C 146.382812 196.855469 147.683594 195.546875 149.285156 195.546875 L 192.84375 195.546875 C 194.449219 195.546875 195.75 196.855469 195.75 198.460938 C 195.75 200.066406 194.449219 201.371094 192.84375 201.371094 Z M 149.285156 185.199219 C 147.683594 185.199219 146.382812 183.894531 146.382812 182.289062 C 146.382812 180.679688 147.683594 179.375 149.285156 179.375 L 192.84375 179.375 C 194.449219 179.375 195.75 180.679688 195.75 182.289062 C 195.75 183.894531 194.449219 185.199219 192.84375 185.199219 Z M 149.285156 185.199219 " fill-opacity="1" fill-rule="evenodd"/></g></svg>