<svg xmlns="http://www.w3.org/2000/svg" xmlns:xlink="http://www.w3.org/1999/xlink" width="500" zoomAndPan="magnify" viewBox="0 0 375 374.999991" height="500" preserveAspectRatio="xMidYMid meet" version="1.0"><defs><clipPath id="8282b54838"><path d="M 121.046875 183 L 271 183 L 271 259.808594 L 121.046875 259.808594 Z M 121.046875 183 " clip-rule="nonzero"/></clipPath><clipPath id="cb87933a5a"><path d="M 158 93.308594 L 234 93.308594 L 234 188 L 158 188 Z M 158 93.308594 " clip-rule="nonzero"/></clipPath></defs><g clip-path="url(#8282b54838)"><path fill="#000000" d="M 170.734375 259.808594 L 221.546875 259.808594 C 248.792969 259.808594 270.882812 259.878906 270.882812 232.65625 C 270.882812 212.28125 258.5 194.808594 240.84375 187.300781 C 240.925781 187.46875 241.023438 187.625 241.101562 187.796875 C 242.152344 190.042969 242.835938 192.386719 243.140625 194.664062 C 243.90625 194.875 244.65625 195.167969 245.382812 195.554688 C 250.796875 198.449219 252.835938 205.171875 249.9375 210.574219 C 247.042969 215.980469 240.3125 218.015625 234.902344 215.125 C 229.492188 212.234375 227.457031 205.507812 230.347656 200.105469 C 231.972656 197.074219 234.800781 195.105469 237.925781 194.464844 C 237.253906 191.050781 235.507812 187.3125 232.734375 184.652344 C 230.566406 184.152344 228.351562 183.785156 226.085938 183.578125 C 225.890625 192.566406 196.140625 214.617188 196.140625 214.617188 C 196.140625 214.617188 166.390625 192.566406 166.195312 183.582031 C 164.605469 183.726562 163.039062 183.945312 161.496094 184.238281 C 158.097656 186.949219 155.710938 190.824219 155.054688 193.976562 C 156.269531 194.660156 157.222656 195.78125 157.753906 197.160156 C 162.375 199.1875 166.476562 203.730469 169.636719 210.332031 C 170.105469 211.308594 170.105469 212.421875 169.660156 213.390625 C 171.617188 218.285156 172.738281 223.640625 172.738281 228.144531 C 172.738281 235.273438 172.425781 239.738281 166.445312 240.921875 C 165.871094 241.480469 165.109375 241.796875 164.308594 241.796875 L 159.710938 241.796875 C 158.015625 241.796875 156.632812 240.417969 156.632812 238.71875 L 156.632812 238.648438 C 156.671875 236.988281 158.042969 235.644531 159.710938 235.644531 L 164.308594 235.644531 C 164.753906 235.644531 165.191406 235.742188 165.59375 235.929688 C 166.683594 235.699219 166.867188 235.390625 166.964844 235.214844 C 167.542969 234.226562 167.65625 231.777344 167.65625 228.144531 C 167.65625 224.21875 166.65625 219.515625 164.90625 215.183594 C 164.121094 214.835938 163.476562 214.222656 163.109375 213.449219 C 160.097656 207.152344 156.015625 203.238281 152.46875 203.238281 C 148.84375 203.238281 144.566406 207.460938 141.566406 213.996094 C 141.15625 214.886719 140.398438 215.574219 139.480469 215.898438 C 137.878906 220.085938 136.996094 224.414062 136.996094 228.140625 C 136.996094 230.988281 137.054688 234.121094 137.746094 235.226562 C 137.851562 235.398438 138.066406 235.734375 139.292969 235.964844 C 139.71875 235.75 140.191406 235.636719 140.675781 235.636719 L 145.277344 235.636719 C 146.910156 235.636719 148.253906 236.921875 148.347656 238.53125 L 148.355469 238.550781 L 148.355469 238.71875 C 148.355469 240.417969 146.972656 241.796875 145.277344 241.796875 L 140.675781 241.796875 C 139.921875 241.796875 139.191406 241.511719 138.628906 241.003906 C 136.976562 240.730469 134.78125 240.078125 133.429688 237.914062 C 132.152344 235.859375 131.917969 233.011719 131.917969 228.144531 C 131.917969 223.699219 132.96875 218.585938 134.882812 213.703125 C 134.5625 212.816406 134.597656 211.847656 134.992188 210.992188 C 136.886719 206.851562 139.285156 203.324219 141.921875 200.789062 C 143.460938 199.300781 145.113281 198.140625 146.835938 197.332031 C 147.398438 195.757812 148.519531 194.492188 149.9375 193.804688 C 150.261719 191.511719 151.160156 189.125 152.511719 186.851562 C 134.285156 194.097656 121.398438 211.871094 121.398438 232.65625 C 121.398438 259.878906 143.488281 259.808594 170.734375 259.808594 Z M 209.105469 232.292969 C 209.105469 231.652344 209.683594 231.136719 210.398438 231.136719 L 217.4375 231.136719 L 217.4375 224.105469 C 217.4375 223.390625 217.957031 222.808594 218.59375 222.808594 L 225.542969 222.808594 C 226.179688 222.808594 226.695312 223.390625 226.695312 224.105469 L 226.695312 231.136719 L 233.734375 231.136719 C 234.453125 231.136719 235.03125 231.652344 235.03125 232.292969 L 235.03125 239.230469 C 235.03125 239.867188 234.449219 240.386719 233.734375 240.386719 L 226.695312 240.386719 L 226.695312 247.414062 C 226.695312 248.132812 226.179688 248.710938 225.542969 248.710938 L 218.59375 248.710938 C 217.957031 248.710938 217.4375 248.132812 217.4375 247.414062 L 217.4375 240.386719 L 210.398438 240.386719 C 209.683594 240.386719 209.105469 239.867188 209.105469 239.230469 Z M 209.105469 232.292969 " fill-opacity="1" fill-rule="nonzero"/></g><g clip-path="url(#cb87933a5a)"><path fill="#000000" d="M 158.820312 139.03125 C 158.847656 139.386719 158.878906 139.742188 158.910156 140.09375 C 161.292969 167.003906 177.050781 187.796875 196.140625 187.796875 C 215.226562 187.796875 230.988281 167.003906 233.371094 140.09375 C 233.40625 139.742188 233.433594 139.386719 233.460938 139.03125 C 233.632812 137.867188 233.742188 136.683594 233.8125 135.484375 C 233.859375 134.664062 233.890625 133.84375 233.890625 133.007812 C 233.890625 130.964844 233.742188 128.949219 233.460938 126.984375 C 230.699219 107.917969 215.042969 93.308594 196.140625 93.308594 C 177.238281 93.308594 161.582031 107.917969 158.820312 126.984375 C 158.535156 128.949219 158.390625 130.964844 158.390625 133.007812 C 158.390625 133.84375 158.425781 134.664062 158.46875 135.484375 C 158.539062 136.683594 158.652344 137.867188 158.820312 139.03125 Z M 172.855469 117.628906 C 172.855469 117.628906 183.71875 122.898438 196.140625 123.238281 C 208.5625 122.898438 219.425781 117.628906 219.425781 117.628906 C 227.300781 120.730469 223.566406 142.847656 223.566406 142.851562 C 225.535156 141.480469 227.335938 140.769531 228.804688 140.398438 C 226.640625 163.90625 212.84375 182.03125 196.140625 182.03125 C 179.4375 182.03125 165.636719 163.90625 163.472656 140.398438 C 164.941406 140.769531 166.746094 141.480469 168.707031 142.851562 C 168.710938 142.847656 164.980469 120.730469 172.855469 117.628906 Z M 172.855469 117.628906 " fill-opacity="1" fill-rule="nonzero"/></g><path fill="#000000" d="M 245.699219 205.34375 C 245.699219 205.707031 245.660156 206.066406 245.589844 206.425781 C 245.519531 206.78125 245.414062 207.128906 245.273438 207.464844 C 245.136719 207.804688 244.964844 208.121094 244.761719 208.425781 C 244.558594 208.730469 244.328125 209.007812 244.070312 209.265625 C 243.8125 209.523438 243.53125 209.753906 243.230469 209.957031 C 242.925781 210.160156 242.605469 210.332031 242.269531 210.46875 C 241.929688 210.609375 241.582031 210.714844 241.226562 210.785156 C 240.867188 210.855469 240.507812 210.890625 240.140625 210.890625 C 239.777344 210.890625 239.414062 210.855469 239.058594 210.785156 C 238.699219 210.714844 238.351562 210.609375 238.015625 210.46875 C 237.679688 210.332031 237.359375 210.160156 237.054688 209.957031 C 236.753906 209.753906 236.472656 209.523438 236.214844 209.265625 C 235.957031 209.007812 235.726562 208.730469 235.523438 208.425781 C 235.320312 208.121094 235.148438 207.804688 235.007812 207.464844 C 234.871094 207.128906 234.765625 206.78125 234.691406 206.425781 C 234.621094 206.066406 234.585938 205.707031 234.585938 205.34375 C 234.585938 204.976562 234.621094 204.617188 234.691406 204.257812 C 234.765625 203.902344 234.871094 203.554688 235.007812 203.21875 C 235.148438 202.882812 235.320312 202.5625 235.523438 202.257812 C 235.726562 201.957031 235.957031 201.675781 236.214844 201.417969 C 236.472656 201.160156 236.753906 200.929688 237.054688 200.726562 C 237.359375 200.523438 237.679688 200.355469 238.015625 200.214844 C 238.351562 200.074219 238.699219 199.96875 239.058594 199.898438 C 239.414062 199.828125 239.777344 199.792969 240.140625 199.792969 C 240.507812 199.792969 240.867188 199.828125 241.226562 199.898438 C 241.582031 199.96875 241.929688 200.074219 242.269531 200.214844 C 242.605469 200.355469 242.925781 200.523438 243.230469 200.726562 C 243.53125 200.929688 243.8125 201.160156 244.070312 201.417969 C 244.328125 201.675781 244.558594 201.957031 244.761719 202.257812 C 244.964844 202.5625 245.136719 202.882812 245.273438 203.21875 C 245.414062 203.554688 245.519531 203.902344 245.589844 204.257812 C 245.664062 204.617188 245.699219 204.976562 245.699219 205.34375 Z M 245.699219 205.34375 " fill-opacity="1" fill-rule="nonzero"/></svg>