<svg xmlns="http://www.w3.org/2000/svg" xmlns:xlink="http://www.w3.org/1999/xlink" width="512" zoomAndPan="magnify" viewBox="0 0 384 383.999986" height="512" preserveAspectRatio="xMidYMid meet" version="1.0"><path fill="#000000" d="M 160.890625 213.355469 C 163.761719 215.210938 166.753906 216.765625 169.773438 218.109375 L 168.429688 220.203125 C 163.371094 228.066406 159.183594 237.214844 155.234375 249.027344 C 154.339844 251.867188 152.960938 254.738281 151.285156 257.339844 C 145.066406 267.085938 137.976562 268.941406 129 263.230469 C 120.054688 257.457031 118.769531 250.253906 125.019531 240.503906 C 126.816406 237.695312 128.789062 235.332031 130.945312 233.417969 C 139.980469 224.925781 146.53125 217.332031 151.617188 209.4375 L 152.992188 207.285156 C 155.476562 209.46875 158.078125 211.53125 160.890625 213.324219 Z M 252.847656 180.34375 C 251.414062 184.082031 249.558594 187.730469 247.34375 191.167969 C 229.246094 219.394531 191.554688 227.648438 163.3125 209.558594 C 159.871094 207.34375 156.671875 204.835938 153.800781 202.023438 C 142.222656 190.839844 135.941406 175.859375 135.371094 160.582031 L 111.261719 160.582031 C 110.035156 160.582031 109.015625 159.59375 109.015625 158.339844 C 109.015625 157.082031 110.035156 156.097656 111.261719 156.097656 L 135.371094 156.097656 C 135.761719 145.480469 138.84375 134.898438 144.886719 125.507812 C 163.015625 97.34375 200.707031 89.089844 228.945312 107.121094 C 253.269531 122.699219 263.351562 153.496094 252.878906 180.34375 Z M 145.394531 156.125 L 164.121094 156.125 C 164.597656 156.125 165.019531 155.765625 165.109375 155.257812 C 165.109375 155.140625 165.167969 154.988281 165.199219 154.871094 L 169.355469 142.074219 C 169.683594 140.011719 171.359375 138.515625 173.484375 138.457031 C 175.699219 138.367188 177.523438 139.921875 177.851562 142.101562 L 184.820312 188.566406 C 184.941406 189.195312 185.390625 189.285156 185.808594 189.316406 C 186.199219 189.316406 186.675781 189.167969 186.765625 188.449219 L 195.621094 129.515625 C 195.980469 126.855469 198.132812 124.878906 200.855469 124.789062 C 203.609375 124.730469 205.882812 126.496094 206.421875 129.1875 L 216.441406 169.820312 C 216.59375 170.597656 217.128906 170.71875 217.429688 170.71875 C 217.730469 170.71875 218.238281 170.628906 218.386719 169.941406 L 220.390625 160.433594 C 220.929688 157.921875 223.171875 156.097656 225.746094 156.097656 L 246.925781 156.097656 C 246.808594 153.226562 246.449219 150.324219 245.820312 147.457031 C 242.917969 134.179688 235.019531 122.847656 223.5625 115.523438 C 199.960938 100.390625 168.429688 107.300781 153.292969 130.921875 C 148.265625 138.753906 145.722656 147.425781 145.363281 156.097656 Z M 246.925781 160.582031 L 225.746094 160.582031 C 225.269531 160.582031 224.878906 160.910156 224.789062 161.359375 L 222.785156 170.867188 C 222.246094 173.46875 220.09375 175.203125 217.429688 175.203125 C 214.765625 175.203125 212.613281 173.4375 212.074219 170.808594 L 202.054688 130.171875 C 201.875 129.367188 201.304688 129.304688 201.035156 129.277344 C 200.738281 129.277344 200.199219 129.425781 200.078125 130.144531 L 191.222656 189.078125 C 190.863281 191.765625 188.679688 193.742188 185.929688 193.800781 L 185.808594 193.800781 C 183.117188 193.800781 180.902344 191.945312 180.425781 189.285156 L 173.574219 143.65625 L 169.535156 156.066406 C 169.058594 158.636719 166.78125 160.550781 164.152344 160.582031 L 145.421875 160.582031 C 146.140625 176.519531 154.308594 191.917969 168.757812 201.15625 C 177.042969 206.476562 186.46875 209.199219 196.101562 209.199219 C 199.75 209.199219 203.429688 208.8125 207.078125 208.003906 C 220.363281 205.101562 231.699219 197.210938 239.027344 185.757812 C 243.933594 178.101562 246.597656 169.433594 246.984375 160.582031 Z M 246.925781 160.582031 " fill-opacity="1" fill-rule="nonzero"/></svg>