<svg xmlns="http://www.w3.org/2000/svg" xmlns:xlink="http://www.w3.org/1999/xlink" width="512" zoomAndPan="magnify" viewBox="0 0 384 383.999986" height="512" preserveAspectRatio="xMidYMid meet" version="1.0"><defs><clipPath id="3c70f6938d"><path d="M 115.199219 126.625 L 268.949219 126.625 L 268.949219 257.125 L 115.199219 257.125 Z M 115.199219 126.625 " clip-rule="nonzero"/></clipPath></defs><g clip-path="url(#3c70f6938d)"><path fill="#000000" d="M 259.320312 152.957031 L 216.667969 152.957031 L 216.667969 132.753906 C 216.667969 129.375 213.917969 126.625 210.542969 126.625 L 173.4375 126.625 C 170.058594 126.625 167.308594 129.375 167.308594 132.753906 L 167.308594 152.964844 L 124.660156 152.964844 C 119.460938 152.957031 115.242188 157.175781 115.242188 162.375 L 115.242188 247.9375 C 115.242188 253.136719 119.460938 257.351562 124.660156 257.351562 L 259.320312 257.351562 C 264.519531 257.351562 268.734375 253.136719 268.734375 247.9375 L 268.734375 162.375 C 268.730469 157.175781 264.519531 152.957031 259.320312 152.957031 Z M 175.589844 134.90625 L 208.386719 134.90625 L 208.386719 152.964844 L 175.589844 152.964844 Z M 221.746094 217.75 L 204.582031 217.75 L 204.582031 234.910156 L 179.394531 234.910156 L 179.394531 217.75 L 162.230469 217.75 L 162.230469 192.558594 L 179.394531 192.558594 L 179.394531 175.394531 L 204.582031 175.394531 L 204.582031 192.558594 L 221.746094 192.558594 Z M 221.746094 217.75 " fill-opacity="1" fill-rule="nonzero"/></g></svg>