<svg xmlns="http://www.w3.org/2000/svg" xmlns:xlink="http://www.w3.org/1999/xlink" width="500" zoomAndPan="magnify" viewBox="0 0 375 374.999991" height="500" preserveAspectRatio="xMidYMid meet" version="1.0"><defs><clipPath id="993137082d"><path d="M 107.203125 139 L 263 139 L 263 300 L 107.203125 300 Z M 107.203125 139 " clip-rule="nonzero"/></clipPath></defs><path fill="#2f2e2d" d="M 231.84375 128.300781 C 229.433594 132.117188 227.007812 135.917969 224.566406 139.707031 C 221.226562 137.5625 217.3125 136.355469 213.234375 136.355469 C 211.101562 136.355469 208.96875 136.691406 206.921875 137.351562 C 196.640625 140.636719 190.582031 150.445312 192.179688 161.207031 C 193.0625 167.203125 196.695312 172.296875 201.757812 175.453125 C 198.476562 180.546875 195.210938 185.613281 191.914062 190.667969 C 190.652344 192.601562 188.855469 192.828125 186.921875 191.59375 C 178.785156 186.386719 170.636719 181.179688 162.527344 175.917969 C 160.257812 174.441406 160.074219 172.84375 161.703125 170.332031 C 172.109375 154.039062 182.558594 137.757812 192.980469 121.492188 C 195.742188 117.183594 198.449219 112.863281 201.242188 108.582031 C 202.992188 105.902344 204.464844 105.621094 207.171875 107.359375 C 214.929688 112.300781 222.6875 117.269531 230.429688 122.25 C 233.34375 124.117188 233.683594 125.40625 231.84375 128.300781 " fill-opacity="1" fill-rule="nonzero"/><path fill="#2f2e2d" d="M 211.03125 101.734375 C 214.496094 96.414062 218.183594 90.785156 221.84375 85.160156 C 223.386719 82.785156 224.859375 80.386719 226.429688 78.042969 C 228.113281 75.503906 229.417969 75.125 231.886719 76.667969 C 237.371094 80.105469 242.785156 83.628906 248.210938 87.136719 C 250.273438 88.46875 250.652344 90.238281 249.347656 92.289062 C 244.1875 100.425781 238.984375 108.554688 233.863281 116.566406 C 226.277344 111.625 218.84375 106.800781 211.03125 101.734375 " fill-opacity="1" fill-rule="nonzero"/><path fill="#2f2e2d" d="M 159.808594 182.019531 C 167.550781 186.976562 174.96875 191.71875 182.726562 196.671875 C 180.160156 200.558594 177.550781 204.601562 174.84375 208.574219 C 173.695312 210.257812 171.984375 210.566406 170.285156 209.5 C 164.578125 205.921875 158.898438 202.300781 153.273438 198.609375 C 151.503906 197.445312 151.097656 195.746094 152.277344 193.867188 C 154.785156 189.878906 157.339844 185.894531 159.808594 182.019531 " fill-opacity="1" fill-rule="nonzero"/><g clip-path="url(#993137082d)"><path fill="#2f2e2d" d="M 213.484375 166.570312 C 208.265625 166.652344 204.214844 162.878906 204.128906 157.855469 C 204.019531 152.691406 207.707031 148.746094 212.839844 148.621094 C 218.097656 148.507812 221.800781 152.042969 221.914062 157.378906 C 222.039062 162.359375 218.210938 166.5 213.484375 166.570312 Z M 249.488281 287.867188 C 246.109375 284.875 242.449219 282.210938 238.578125 279.824219 C 236.390625 278.460938 234.089844 277.226562 231.773438 276.078125 C 231.058594 275.726562 230.34375 275.359375 229.585938 275.011719 C 234.171875 271.023438 238.941406 267.472656 242.714844 263.109375 C 262.601562 240.179688 267.667969 214.300781 256.839844 185.640625 C 251.832031 172.464844 243.554688 161.757812 232.140625 153.433594 C 230.988281 152.605469 229.992188 151.246094 229.347656 149.9375 C 225.492188 141.898438 216.386719 137.84375 207.917969 140.507812 C 199.191406 143.289062 194.101562 151.566406 195.460938 160.71875 C 196.738281 169.234375 204.605469 175.539062 213.722656 175.496094 C 215.351562 175.453125 217.539062 175.496094 218.605469 176.449219 C 232.378906 188.785156 238.703125 204.070312 234.804688 222.46875 C 229.277344 248.65625 205.96875 264.175781 179.585938 259.753906 C 171.984375 258.449219 165.109375 255.335938 159.261719 249.652344 C 161.6875 249.652344 164.070312 249.722656 166.5 249.609375 C 171.4375 249.453125 174.339844 246.746094 174.339844 242.453125 C 174.296875 237.945312 171.308594 235.238281 166.261719 235.238281 C 159.066406 235.195312 151.855469 235.195312 144.660156 235.195312 C 134.785156 235.195312 124.925781 235.152344 115.066406 235.238281 C 110.5625 235.28125 107.097656 238.535156 107.097656 242.523438 C 107.097656 246.550781 110.128906 249.371094 114.785156 249.609375 C 117.210938 249.722656 119.679688 249.496094 122.066406 249.761719 C 123.171875 249.890625 124.5625 250.675781 125.121094 251.558594 C 130.382812 260.402344 137.339844 267.558594 145.699219 273.410156 C 146.21875 273.804688 146.722656 274.167969 147.324219 274.644531 C 146.457031 275.039062 145.570312 275.488281 144.730469 275.878906 C 141.152344 277.664062 137.730469 279.65625 134.4375 281.886719 C 132.835938 282.996094 131.25 284.160156 129.738281 285.351562 C 128.910156 286.027344 128.027344 286.828125 127.15625 287.585938 C 126.523438 288.132812 125.640625 288.582031 125.527344 289.453125 C 125.402344 290.53125 125.558594 291.753906 125.527344 292.875 C 125.527344 295.21875 125.488281 297.578125 125.488281 299.960938 L 251.46875 299.960938 L 251.46875 289.929688 C 251.4375 289.859375 251.4375 289.773438 251.398438 289.730469 C 250.949219 288.933594 250.164062 288.496094 249.488281 287.867188 " fill-opacity="1" fill-rule="nonzero"/></g></svg>