<svg xmlns="http://www.w3.org/2000/svg" xmlns:xlink="http://www.w3.org/1999/xlink" width="500" zoomAndPan="magnify" viewBox="0 0 375 374.999991" height="500" preserveAspectRatio="xMidYMid meet" version="1.0"><defs><g/><clipPath id="af53151ed8"><path d="M 21 133 L 118.800781 133 L 118.800781 243.625 L 21 243.625 Z M 21 133 " clip-rule="nonzero"/></clipPath></defs><g clip-path="url(#af53151ed8)"><path fill="#ffffff" d="M 111.117188 139.945312 C 106.742188 135.777344 100.875 133.449219 94.832031 133.472656 C 88.59375 133.496094 82.730469 135.9375 78.3125 140.351562 L 69.894531 148.769531 L 61.6875 140.5625 C 52.542969 131.421875 37.65625 131.132812 28.425781 140.1875 C 19.101562 149.332031 19.046875 164.355469 28.257812 173.566406 L 72.835938 218.144531 C 77.925781 223.234375 78.160156 231.519531 73.171875 236.699219 C 68.070312 242.003906 59.59375 242.066406 54.414062 236.886719 L 43.371094 225.84375 C 42.90625 225.378906 42.855469 224.640625 43.257812 224.113281 C 44.886719 221.96875 45.789062 219.246094 45.589844 216.308594 C 45.191406 210.511719 40.449219 205.847656 34.644531 205.546875 C 27.925781 205.195312 22.351562 210.609375 22.441406 217.273438 C 22.523438 223.449219 27.554688 228.546875 33.726562 228.699219 C 35.71875 228.75 37.601562 228.296875 39.253906 227.457031 C 39.757812 227.199219 40.367188 227.308594 40.765625 227.707031 L 52.171875 239.117188 C 55.351562 242.292969 59.523438 243.878906 63.695312 243.878906 C 67.871094 243.878906 72.042969 242.292969 75.21875 239.117188 C 81.574219 232.761719 81.574219 222.421875 75.21875 216.070312 L 30.492188 171.335938 C 22.566406 163.410156 22.566406 150.511719 30.492188 142.585938 C 38.417969 134.660156 51.316406 134.660156 59.242188 142.585938 L 68.738281 152.082031 C 69.054688 152.398438 69.476562 152.550781 69.894531 152.539062 C 70.3125 152.550781 70.734375 152.398438 71.050781 152.082031 L 80.359375 142.773438 C 84.21875 138.914062 89.425781 136.640625 94.882812 136.632812 C 100.328125 136.621094 105.453125 138.738281 109.300781 142.585938 C 113.148438 146.433594 115.261719 151.550781 115.253906 156.992188 C 115.246094 162.453125 112.972656 167.664062 109.113281 171.527344 L 106.105469 174.535156 C 105.855469 174.78125 105.519531 174.921875 105.171875 174.921875 L 96.203125 174.921875 C 95.707031 174.921875 95.25 174.640625 95.027344 174.195312 L 90.699219 165.535156 C 90.214844 164.5625 88.828125 164.5625 88.34375 165.535156 L 80.902344 180.40625 C 80.417969 181.378906 79.035156 181.378906 78.550781 180.40625 L 76.007812 175.320312 C 75.523438 174.351562 74.140625 174.351562 73.65625 175.320312 L 71.117188 180.40625 C 70.632812 181.375 69.246094 181.375 68.765625 180.40625 L 61.328125 165.53125 C 60.84375 164.558594 59.457031 164.558594 58.972656 165.53125 L 54.644531 174.191406 C 54.421875 174.636719 53.964844 174.917969 53.46875 174.917969 L 45.53125 174.917969 C 44.667969 174.917969 43.914062 175.582031 43.886719 176.449219 C 43.863281 177.34375 44.578125 178.074219 45.46875 178.074219 L 55.417969 178.074219 C 55.917969 178.074219 56.375 177.792969 56.597656 177.347656 L 58.972656 172.589844 C 59.457031 171.617188 60.84375 171.617188 61.328125 172.589844 L 68.765625 187.464844 C 69.246094 188.433594 70.632812 188.433594 71.117188 187.464844 L 73.65625 182.378906 C 74.140625 181.410156 75.523438 181.410156 76.007812 182.378906 L 78.550781 187.464844 C 79.035156 188.4375 80.417969 188.4375 80.902344 187.464844 L 88.339844 172.589844 C 88.824219 171.621094 90.207031 171.621094 90.691406 172.589844 L 93.074219 177.351562 C 93.296875 177.796875 93.753906 178.078125 94.25 178.078125 L 106.363281 178.078125 C 106.363281 178.078125 106.363281 178.078125 106.367188 178.078125 L 106.371094 178.078125 C 106.46875 178.078125 106.5625 178.066406 106.652344 178.050781 C 106.660156 178.050781 106.667969 178.046875 106.671875 178.046875 C 106.765625 178.027344 106.855469 178.003906 106.945312 177.96875 C 106.953125 177.964844 106.960938 177.964844 106.96875 177.960938 C 107.054688 177.925781 107.136719 177.878906 107.21875 177.828125 C 107.226562 177.824219 107.234375 177.820312 107.242188 177.816406 C 107.324219 177.757812 107.402344 177.695312 107.476562 177.625 C 107.480469 177.621094 107.480469 177.621094 107.484375 177.617188 L 111.304688 173.796875 C 115.824219 169.277344 118.460938 163.15625 118.410156 156.761719 C 118.359375 150.371094 115.765625 144.378906 111.117188 139.945312 Z M 25.597656 217.117188 C 25.597656 212.46875 29.382812 208.6875 34.027344 208.6875 C 38.675781 208.6875 42.457031 212.46875 42.457031 217.117188 C 42.457031 221.765625 38.675781 225.546875 34.027344 225.546875 C 29.382812 225.546875 25.597656 221.765625 25.597656 217.117188 Z M 25.597656 217.117188 " fill-opacity="1" fill-rule="nonzero"/></g><g fill="#1e0a0b" fill-opacity="1"><g transform="translate(86.685548, 210.457868)"><g><path d="M 11.109375 -6.78125 C 11.847656 -6.539062 12.425781 -6.144531 12.84375 -5.59375 C 13.269531 -5.039062 13.484375 -4.359375 13.484375 -3.546875 C 13.484375 -2.410156 13.039062 -1.535156 12.15625 -0.921875 C 11.269531 -0.304688 9.976562 0 8.28125 0 L 1.546875 0 L 1.546875 -13.03125 L 7.90625 -13.03125 C 9.5 -13.03125 10.71875 -12.722656 11.5625 -12.109375 C 12.414062 -11.503906 12.84375 -10.679688 12.84375 -9.640625 C 12.84375 -9.003906 12.6875 -8.4375 12.375 -7.9375 C 12.070312 -7.445312 11.648438 -7.0625 11.109375 -6.78125 Z M 4.546875 -10.75 L 4.546875 -7.6875 L 7.53125 -7.6875 C 8.28125 -7.6875 8.847656 -7.816406 9.234375 -8.078125 C 9.617188 -8.335938 9.8125 -8.722656 9.8125 -9.234375 C 9.8125 -9.742188 9.617188 -10.125 9.234375 -10.375 C 8.847656 -10.625 8.28125 -10.75 7.53125 -10.75 Z M 8.0625 -2.265625 C 8.851562 -2.265625 9.445312 -2.394531 9.84375 -2.65625 C 10.25 -2.914062 10.453125 -3.320312 10.453125 -3.875 C 10.453125 -4.945312 9.65625 -5.484375 8.0625 -5.484375 L 4.546875 -5.484375 L 4.546875 -2.265625 Z M 8.0625 -2.265625 "/></g></g></g><g fill="#1e0a0b" fill-opacity="1"><g transform="translate(100.912808, 210.457868)"><g><path d="M 1.546875 -13.03125 L 4.5625 -13.03125 L 4.5625 0 L 1.546875 0 Z M 1.546875 -13.03125 "/></g></g></g><g fill="#1e0a0b" fill-opacity="1"><g transform="translate(107.012864, 210.457868)"><g><path d="M 13.484375 -13.03125 L 13.484375 0 L 11.015625 0 L 4.515625 -7.90625 L 4.515625 0 L 1.546875 0 L 1.546875 -13.03125 L 4.03125 -13.03125 L 10.515625 -5.125 L 10.515625 -13.03125 Z M 13.484375 -13.03125 "/></g></g></g><g fill="#1e0a0b" fill-opacity="1"><g transform="translate(122.039825, 210.457868)"><g><path d="M 10.125 -2.796875 L 4.078125 -2.796875 L 2.921875 0 L -0.171875 0 L 5.640625 -13.03125 L 8.609375 -13.03125 L 14.4375 0 L 11.28125 0 Z M 9.171875 -5.078125 L 7.109375 -10.0625 L 5.046875 -5.078125 Z M 9.171875 -5.078125 "/></g></g></g><g fill="#1e0a0b" fill-opacity="1"><g transform="translate(136.285681, 210.457868)"><g><path d="M 13.40625 0 L 13.375 -7.8125 L 9.546875 -1.375 L 8.1875 -1.375 L 4.375 -7.640625 L 4.375 0 L 1.546875 0 L 1.546875 -13.03125 L 4.03125 -13.03125 L 8.90625 -4.9375 L 13.71875 -13.03125 L 16.1875 -13.03125 L 16.234375 0 Z M 13.40625 0 "/></g></g></g><g fill="#1e0a0b" fill-opacity="1"><g transform="translate(154.04651, 210.457868)"><g><path d="M 1.546875 -13.03125 L 4.5625 -13.03125 L 4.5625 0 L 1.546875 0 Z M 1.546875 -13.03125 "/></g></g></g><g fill="#1e0a0b" fill-opacity="1"><g transform="translate(160.146565, 210.457868)"><g><path d="M 9.84375 0 L 7.328125 -3.625 L 4.5625 -3.625 L 4.5625 0 L 1.546875 0 L 1.546875 -13.03125 L 7.1875 -13.03125 C 8.332031 -13.03125 9.332031 -12.835938 10.1875 -12.453125 C 11.039062 -12.066406 11.695312 -11.519531 12.15625 -10.8125 C 12.613281 -10.101562 12.84375 -9.265625 12.84375 -8.296875 C 12.84375 -7.328125 12.609375 -6.492188 12.140625 -5.796875 C 11.671875 -5.097656 11.007812 -4.5625 10.15625 -4.1875 L 13.078125 0 Z M 9.78125 -8.296875 C 9.78125 -9.023438 9.546875 -9.582031 9.078125 -9.96875 C 8.609375 -10.363281 7.921875 -10.5625 7.015625 -10.5625 L 4.5625 -10.5625 L 4.5625 -6.03125 L 7.015625 -6.03125 C 7.921875 -6.03125 8.609375 -6.226562 9.078125 -6.625 C 9.546875 -7.019531 9.78125 -7.578125 9.78125 -8.296875 Z M 9.78125 -8.296875 "/></g></g></g><g fill="#1e0a0b" fill-opacity="1"><g transform="translate(173.815891, 210.457868)"><g><path d="M 10.125 -2.796875 L 4.078125 -2.796875 L 2.921875 0 L -0.171875 0 L 5.640625 -13.03125 L 8.609375 -13.03125 L 14.4375 0 L 11.28125 0 Z M 9.171875 -5.078125 L 7.109375 -10.0625 L 5.046875 -5.078125 Z M 9.171875 -5.078125 "/></g></g></g><g fill="#1e0a0b" fill-opacity="1"><g transform="translate(188.061747, 210.457868)"><g/></g></g><g fill="#1e0a0b" fill-opacity="1"><g transform="translate(193.324908, 210.457868)"><g><path d="M 13.40625 0 L 13.375 -7.8125 L 9.546875 -1.375 L 8.1875 -1.375 L 4.375 -7.640625 L 4.375 0 L 1.546875 0 L 1.546875 -13.03125 L 4.03125 -13.03125 L 8.90625 -4.9375 L 13.71875 -13.03125 L 16.1875 -13.03125 L 16.234375 0 Z M 13.40625 0 "/></g></g></g><g fill="#1e0a0b" fill-opacity="1"><g transform="translate(211.085737, 210.457868)"><g><path d="M 11.625 -2.421875 L 11.625 0 L 1.546875 0 L 1.546875 -13.03125 L 11.390625 -13.03125 L 11.390625 -10.609375 L 4.546875 -10.609375 L 4.546875 -7.78125 L 10.59375 -7.78125 L 10.59375 -5.4375 L 4.546875 -5.4375 L 4.546875 -2.421875 Z M 11.625 -2.421875 "/></g></g></g><g fill="#1e0a0b" fill-opacity="1"><g transform="translate(223.564809, 210.457868)"><g><path d="M 1.546875 -13.03125 L 7.46875 -13.03125 C 8.875 -13.03125 10.117188 -12.757812 11.203125 -12.21875 C 12.296875 -11.675781 13.140625 -10.914062 13.734375 -9.9375 C 14.335938 -8.957031 14.640625 -7.816406 14.640625 -6.515625 C 14.640625 -5.210938 14.335938 -4.070312 13.734375 -3.09375 C 13.140625 -2.113281 12.296875 -1.351562 11.203125 -0.8125 C 10.117188 -0.269531 8.875 0 7.46875 0 L 1.546875 0 Z M 7.3125 -2.46875 C 8.613281 -2.46875 9.648438 -2.832031 10.421875 -3.5625 C 11.203125 -4.289062 11.59375 -5.273438 11.59375 -6.515625 C 11.59375 -7.753906 11.203125 -8.734375 10.421875 -9.453125 C 9.648438 -10.179688 8.613281 -10.546875 7.3125 -10.546875 L 4.5625 -10.546875 L 4.5625 -2.46875 Z M 7.3125 -2.46875 "/></g></g></g><g fill="#1e0a0b" fill-opacity="1"><g transform="translate(238.926521, 210.457868)"><g><path d="M 1.546875 -13.03125 L 4.5625 -13.03125 L 4.5625 0 L 1.546875 0 Z M 1.546875 -13.03125 "/></g></g></g><g fill="#1e0a0b" fill-opacity="1"><g transform="translate(245.026577, 210.457868)"><g><path d="M 7.78125 0.21875 C 6.445312 0.21875 5.242188 -0.0664062 4.171875 -0.640625 C 3.097656 -1.210938 2.253906 -2.007812 1.640625 -3.03125 C 1.023438 -4.0625 0.71875 -5.222656 0.71875 -6.515625 C 0.71875 -7.804688 1.023438 -8.960938 1.640625 -9.984375 C 2.253906 -11.003906 3.097656 -11.800781 4.171875 -12.375 C 5.242188 -12.957031 6.453125 -13.25 7.796875 -13.25 C 8.921875 -13.25 9.9375 -13.050781 10.84375 -12.65625 C 11.757812 -12.257812 12.53125 -11.6875 13.15625 -10.9375 L 11.21875 -9.15625 C 10.34375 -10.175781 9.253906 -10.6875 7.953125 -10.6875 C 7.140625 -10.6875 6.414062 -10.507812 5.78125 -10.15625 C 5.15625 -9.800781 4.664062 -9.304688 4.3125 -8.671875 C 3.957031 -8.035156 3.78125 -7.316406 3.78125 -6.515625 C 3.78125 -5.703125 3.957031 -4.976562 4.3125 -4.34375 C 4.664062 -3.71875 5.15625 -3.226562 5.78125 -2.875 C 6.414062 -2.519531 7.140625 -2.34375 7.953125 -2.34375 C 9.253906 -2.34375 10.34375 -2.859375 11.21875 -3.890625 L 13.15625 -2.109375 C 12.53125 -1.347656 11.757812 -0.769531 10.84375 -0.375 C 9.925781 0.0195312 8.90625 0.21875 7.78125 0.21875 Z M 7.78125 0.21875 "/></g></g></g><g fill="#1e0a0b" fill-opacity="1"><g transform="translate(258.658709, 210.457868)"><g><path d="M 10.125 -2.796875 L 4.078125 -2.796875 L 2.921875 0 L -0.171875 0 L 5.640625 -13.03125 L 8.609375 -13.03125 L 14.4375 0 L 11.28125 0 Z M 9.171875 -5.078125 L 7.109375 -10.0625 L 5.046875 -5.078125 Z M 9.171875 -5.078125 "/></g></g></g><g fill="#1e0a0b" fill-opacity="1"><g transform="translate(272.904565, 210.457868)"><g><path d="M 1.546875 -13.03125 L 4.5625 -13.03125 L 4.5625 -2.453125 L 11.09375 -2.453125 L 11.09375 0 L 1.546875 0 Z M 1.546875 -13.03125 "/></g></g></g><g fill="#1e0a0b" fill-opacity="1"><g transform="translate(284.137593, 210.457868)"><g/></g></g><g fill="#1e0a0b" fill-opacity="1"><g transform="translate(289.400753, 210.457868)"><g><path d="M 7.78125 0.21875 C 6.445312 0.21875 5.242188 -0.0664062 4.171875 -0.640625 C 3.097656 -1.210938 2.253906 -2.007812 1.640625 -3.03125 C 1.023438 -4.0625 0.71875 -5.222656 0.71875 -6.515625 C 0.71875 -7.804688 1.023438 -8.960938 1.640625 -9.984375 C 2.253906 -11.003906 3.097656 -11.800781 4.171875 -12.375 C 5.242188 -12.957031 6.453125 -13.25 7.796875 -13.25 C 8.921875 -13.25 9.9375 -13.050781 10.84375 -12.65625 C 11.757812 -12.257812 12.53125 -11.6875 13.15625 -10.9375 L 11.21875 -9.15625 C 10.34375 -10.175781 9.253906 -10.6875 7.953125 -10.6875 C 7.140625 -10.6875 6.414062 -10.507812 5.78125 -10.15625 C 5.15625 -9.800781 4.664062 -9.304688 4.3125 -8.671875 C 3.957031 -8.035156 3.78125 -7.316406 3.78125 -6.515625 C 3.78125 -5.703125 3.957031 -4.976562 4.3125 -4.34375 C 4.664062 -3.71875 5.15625 -3.226562 5.78125 -2.875 C 6.414062 -2.519531 7.140625 -2.34375 7.953125 -2.34375 C 9.253906 -2.34375 10.34375 -2.859375 11.21875 -3.890625 L 13.15625 -2.109375 C 12.53125 -1.347656 11.757812 -0.769531 10.84375 -0.375 C 9.925781 0.0195312 8.90625 0.21875 7.78125 0.21875 Z M 7.78125 0.21875 "/></g></g></g><g fill="#1e0a0b" fill-opacity="1"><g transform="translate(303.032886, 210.457868)"><g><path d="M 1.546875 -13.03125 L 4.5625 -13.03125 L 4.5625 -2.453125 L 11.09375 -2.453125 L 11.09375 0 L 1.546875 0 Z M 1.546875 -13.03125 "/></g></g></g><g fill="#1e0a0b" fill-opacity="1"><g transform="translate(314.265902, 210.457868)"><g><path d="M 1.546875 -13.03125 L 4.5625 -13.03125 L 4.5625 0 L 1.546875 0 Z M 1.546875 -13.03125 "/></g></g></g><g fill="#1e0a0b" fill-opacity="1"><g transform="translate(320.365969, 210.457868)"><g><path d="M 13.484375 -13.03125 L 13.484375 0 L 11.015625 0 L 4.515625 -7.90625 L 4.515625 0 L 1.546875 0 L 1.546875 -13.03125 L 4.03125 -13.03125 L 10.515625 -5.125 L 10.515625 -13.03125 Z M 13.484375 -13.03125 "/></g></g></g><g fill="#1e0a0b" fill-opacity="1"><g transform="translate(335.39293, 210.457868)"><g><path d="M 1.546875 -13.03125 L 4.5625 -13.03125 L 4.5625 0 L 1.546875 0 Z M 1.546875 -13.03125 "/></g></g></g><g fill="#1e0a0b" fill-opacity="1"><g transform="translate(341.492997, 210.457868)"><g><path d="M 7.78125 0.21875 C 6.445312 0.21875 5.242188 -0.0664062 4.171875 -0.640625 C 3.097656 -1.210938 2.253906 -2.007812 1.640625 -3.03125 C 1.023438 -4.0625 0.71875 -5.222656 0.71875 -6.515625 C 0.71875 -7.804688 1.023438 -8.960938 1.640625 -9.984375 C 2.253906 -11.003906 3.097656 -11.800781 4.171875 -12.375 C 5.242188 -12.957031 6.453125 -13.25 7.796875 -13.25 C 8.921875 -13.25 9.9375 -13.050781 10.84375 -12.65625 C 11.757812 -12.257812 12.53125 -11.6875 13.15625 -10.9375 L 11.21875 -9.15625 C 10.34375 -10.175781 9.253906 -10.6875 7.953125 -10.6875 C 7.140625 -10.6875 6.414062 -10.507812 5.78125 -10.15625 C 5.15625 -9.800781 4.664062 -9.304688 4.3125 -8.671875 C 3.957031 -8.035156 3.78125 -7.316406 3.78125 -6.515625 C 3.78125 -5.703125 3.957031 -4.976562 4.3125 -4.34375 C 4.664062 -3.71875 5.15625 -3.226562 5.78125 -2.875 C 6.414062 -2.519531 7.140625 -2.34375 7.953125 -2.34375 C 9.253906 -2.34375 10.34375 -2.859375 11.21875 -3.890625 L 13.15625 -2.109375 C 12.53125 -1.347656 11.757812 -0.769531 10.84375 -0.375 C 9.925781 0.0195312 8.90625 0.21875 7.78125 0.21875 Z M 7.78125 0.21875 "/></g></g></g></svg>