<svg xmlns="http://www.w3.org/2000/svg" xmlns:xlink="http://www.w3.org/1999/xlink" width="500" zoomAndPan="magnify" viewBox="0 0 375 374.999991" height="500" preserveAspectRatio="xMidYMid meet" version="1.0"><defs><g/><clipPath id="18f254f547"><path d="M 21 133 L 118.800781 133 L 118.800781 243.625 L 21 243.625 Z M 21 133 " clip-rule="nonzero"/></clipPath></defs><g clip-path="url(#18f254f547)"><path fill="#cc2b31" d="M 111.421875 139.925781 C 107.03125 135.765625 101.148438 133.445312 95.082031 133.46875 C 88.824219 133.492188 82.9375 135.925781 78.507812 140.332031 L 70.0625 148.730469 L 61.828125 140.542969 C 52.65625 131.417969 37.71875 131.132812 28.457031 140.167969 C 19.101562 149.292969 19.046875 164.285156 28.289062 173.472656 L 73.015625 217.957031 C 78.117188 223.03125 78.355469 231.300781 73.351562 236.46875 C 68.230469 241.761719 59.730469 241.824219 54.527344 236.652344 L 43.449219 225.636719 C 42.984375 225.171875 42.9375 224.4375 43.335938 223.910156 C 44.972656 221.773438 45.878906 219.050781 45.675781 216.121094 C 45.277344 210.335938 40.519531 205.683594 34.699219 205.382812 C 27.953125 205.035156 22.363281 210.433594 22.453125 217.085938 C 22.535156 223.246094 27.585938 228.332031 33.777344 228.488281 C 35.773438 228.539062 37.660156 228.082031 39.324219 227.246094 C 39.828125 226.992188 40.4375 227.097656 40.835938 227.496094 L 52.28125 238.878906 C 55.472656 242.050781 59.65625 243.632812 63.84375 243.632812 C 68.03125 243.632812 72.21875 242.050781 75.40625 238.878906 C 81.78125 232.539062 81.78125 222.222656 75.40625 215.882812 L 30.53125 171.25 C 22.578125 163.339844 22.578125 150.46875 30.53125 142.5625 C 38.484375 134.652344 51.425781 134.652344 59.375 142.5625 L 68.902344 152.035156 C 69.222656 152.351562 69.644531 152.503906 70.0625 152.492188 C 70.484375 152.503906 70.90625 152.351562 71.222656 152.035156 L 80.5625 142.75 C 84.433594 138.898438 89.660156 136.628906 95.132812 136.621094 C 100.597656 136.609375 105.738281 138.71875 109.597656 142.5625 C 113.457031 146.402344 115.578125 151.503906 115.570312 156.9375 C 115.5625 162.382812 113.28125 167.585938 109.410156 171.441406 L 106.390625 174.441406 C 106.144531 174.6875 105.804688 174.828125 105.453125 174.828125 L 96.457031 174.828125 C 95.960938 174.828125 95.5 174.546875 95.277344 174.101562 L 90.933594 165.460938 C 90.449219 164.492188 89.058594 164.492188 88.574219 165.460938 L 81.105469 180.300781 C 80.621094 181.269531 79.234375 181.269531 78.746094 180.300781 L 76.199219 175.226562 C 75.710938 174.257812 74.324219 174.257812 73.835938 175.226562 L 71.289062 180.296875 C 70.800781 181.265625 69.414062 181.265625 68.929688 180.296875 L 61.464844 165.453125 C 60.980469 164.484375 59.589844 164.484375 59.105469 165.453125 L 54.761719 174.097656 C 54.535156 174.539062 54.082031 174.820312 53.582031 174.820312 L 45.621094 174.820312 C 44.75 174.820312 43.996094 175.484375 43.96875 176.347656 C 43.945312 177.242188 44.664062 177.972656 45.554688 177.972656 L 55.539062 177.972656 C 56.039062 177.972656 56.5 177.691406 56.71875 177.246094 L 59.105469 172.496094 C 59.589844 171.527344 60.980469 171.527344 61.464844 172.496094 L 68.929688 187.339844 C 69.414062 188.308594 70.800781 188.308594 71.289062 187.339844 L 73.835938 182.269531 C 74.324219 181.300781 75.710938 181.300781 76.199219 182.269531 L 78.746094 187.34375 C 79.234375 188.3125 80.621094 188.3125 81.105469 187.34375 L 88.570312 172.5 C 89.054688 171.535156 90.441406 171.53125 90.929688 172.5 L 93.316406 177.25 C 93.542969 177.691406 94 177.972656 94.496094 177.972656 L 106.652344 177.972656 C 106.652344 177.972656 106.652344 177.972656 106.65625 177.972656 C 106.753906 177.972656 106.851562 177.964844 106.941406 177.949219 C 106.949219 177.949219 106.957031 177.945312 106.960938 177.945312 C 107.054688 177.925781 107.144531 177.902344 107.234375 177.867188 C 107.242188 177.863281 107.25 177.859375 107.257812 177.859375 C 107.34375 177.820312 107.429688 177.777344 107.507812 177.726562 C 107.515625 177.722656 107.523438 177.71875 107.53125 177.714844 C 107.617188 177.65625 107.695312 177.59375 107.769531 177.523438 C 107.773438 177.519531 107.773438 177.519531 107.773438 177.515625 L 111.605469 173.707031 C 116.140625 169.195312 118.789062 163.085938 118.738281 156.707031 C 118.6875 150.328125 116.085938 144.351562 111.421875 139.925781 Z M 25.621094 216.929688 C 25.621094 212.289062 29.414062 208.519531 34.078125 208.519531 C 38.738281 208.519531 42.535156 212.292969 42.535156 216.929688 C 42.535156 221.566406 38.738281 225.339844 34.078125 225.339844 C 29.414062 225.339844 25.621094 221.566406 25.621094 216.929688 Z M 25.621094 216.929688 " fill-opacity="1" fill-rule="nonzero"/></g><g fill="#1e0a0b" fill-opacity="1"><g transform="translate(86.685548, 210.457868)"><g><path d="M 11.109375 -6.78125 C 11.847656 -6.539062 12.425781 -6.144531 12.84375 -5.59375 C 13.269531 -5.039062 13.484375 -4.359375 13.484375 -3.546875 C 13.484375 -2.410156 13.039062 -1.535156 12.15625 -0.921875 C 11.269531 -0.304688 9.976562 0 8.28125 0 L 1.546875 0 L 1.546875 -13.03125 L 7.90625 -13.03125 C 9.5 -13.03125 10.71875 -12.722656 11.5625 -12.109375 C 12.414062 -11.503906 12.84375 -10.679688 12.84375 -9.640625 C 12.84375 -9.003906 12.6875 -8.4375 12.375 -7.9375 C 12.070312 -7.445312 11.648438 -7.0625 11.109375 -6.78125 Z M 4.546875 -10.75 L 4.546875 -7.6875 L 7.53125 -7.6875 C 8.28125 -7.6875 8.847656 -7.816406 9.234375 -8.078125 C 9.617188 -8.335938 9.8125 -8.722656 9.8125 -9.234375 C 9.8125 -9.742188 9.617188 -10.125 9.234375 -10.375 C 8.847656 -10.625 8.28125 -10.75 7.53125 -10.75 Z M 8.0625 -2.265625 C 8.851562 -2.265625 9.445312 -2.394531 9.84375 -2.65625 C 10.25 -2.914062 10.453125 -3.320312 10.453125 -3.875 C 10.453125 -4.945312 9.65625 -5.484375 8.0625 -5.484375 L 4.546875 -5.484375 L 4.546875 -2.265625 Z M 8.0625 -2.265625 "/></g></g></g><g fill="#1e0a0b" fill-opacity="1"><g transform="translate(100.912808, 210.457868)"><g><path d="M 1.546875 -13.03125 L 4.5625 -13.03125 L 4.5625 0 L 1.546875 0 Z M 1.546875 -13.03125 "/></g></g></g><g fill="#1e0a0b" fill-opacity="1"><g transform="translate(107.012864, 210.457868)"><g><path d="M 13.484375 -13.03125 L 13.484375 0 L 11.015625 0 L 4.515625 -7.90625 L 4.515625 0 L 1.546875 0 L 1.546875 -13.03125 L 4.03125 -13.03125 L 10.515625 -5.125 L 10.515625 -13.03125 Z M 13.484375 -13.03125 "/></g></g></g><g fill="#1e0a0b" fill-opacity="1"><g transform="translate(122.039825, 210.457868)"><g><path d="M 10.125 -2.796875 L 4.078125 -2.796875 L 2.921875 0 L -0.171875 0 L 5.640625 -13.03125 L 8.609375 -13.03125 L 14.4375 0 L 11.28125 0 Z M 9.171875 -5.078125 L 7.109375 -10.0625 L 5.046875 -5.078125 Z M 9.171875 -5.078125 "/></g></g></g><g fill="#1e0a0b" fill-opacity="1"><g transform="translate(136.285681, 210.457868)"><g><path d="M 13.40625 0 L 13.375 -7.8125 L 9.546875 -1.375 L 8.1875 -1.375 L 4.375 -7.640625 L 4.375 0 L 1.546875 0 L 1.546875 -13.03125 L 4.03125 -13.03125 L 8.90625 -4.9375 L 13.71875 -13.03125 L 16.1875 -13.03125 L 16.234375 0 Z M 13.40625 0 "/></g></g></g><g fill="#1e0a0b" fill-opacity="1"><g transform="translate(154.04651, 210.457868)"><g><path d="M 1.546875 -13.03125 L 4.5625 -13.03125 L 4.5625 0 L 1.546875 0 Z M 1.546875 -13.03125 "/></g></g></g><g fill="#1e0a0b" fill-opacity="1"><g transform="translate(160.146565, 210.457868)"><g><path d="M 9.84375 0 L 7.328125 -3.625 L 4.5625 -3.625 L 4.5625 0 L 1.546875 0 L 1.546875 -13.03125 L 7.1875 -13.03125 C 8.332031 -13.03125 9.332031 -12.835938 10.1875 -12.453125 C 11.039062 -12.066406 11.695312 -11.519531 12.15625 -10.8125 C 12.613281 -10.101562 12.84375 -9.265625 12.84375 -8.296875 C 12.84375 -7.328125 12.609375 -6.492188 12.140625 -5.796875 C 11.671875 -5.097656 11.007812 -4.5625 10.15625 -4.1875 L 13.078125 0 Z M 9.78125 -8.296875 C 9.78125 -9.023438 9.546875 -9.582031 9.078125 -9.96875 C 8.609375 -10.363281 7.921875 -10.5625 7.015625 -10.5625 L 4.5625 -10.5625 L 4.5625 -6.03125 L 7.015625 -6.03125 C 7.921875 -6.03125 8.609375 -6.226562 9.078125 -6.625 C 9.546875 -7.019531 9.78125 -7.578125 9.78125 -8.296875 Z M 9.78125 -8.296875 "/></g></g></g><g fill="#1e0a0b" fill-opacity="1"><g transform="translate(173.815891, 210.457868)"><g><path d="M 10.125 -2.796875 L 4.078125 -2.796875 L 2.921875 0 L -0.171875 0 L 5.640625 -13.03125 L 8.609375 -13.03125 L 14.4375 0 L 11.28125 0 Z M 9.171875 -5.078125 L 7.109375 -10.0625 L 5.046875 -5.078125 Z M 9.171875 -5.078125 "/></g></g></g><g fill="#1e0a0b" fill-opacity="1"><g transform="translate(188.061747, 210.457868)"><g/></g></g><g fill="#1e0a0b" fill-opacity="1"><g transform="translate(193.324908, 210.457868)"><g><path d="M 13.40625 0 L 13.375 -7.8125 L 9.546875 -1.375 L 8.1875 -1.375 L 4.375 -7.640625 L 4.375 0 L 1.546875 0 L 1.546875 -13.03125 L 4.03125 -13.03125 L 8.90625 -4.9375 L 13.71875 -13.03125 L 16.1875 -13.03125 L 16.234375 0 Z M 13.40625 0 "/></g></g></g><g fill="#1e0a0b" fill-opacity="1"><g transform="translate(211.085737, 210.457868)"><g><path d="M 11.625 -2.421875 L 11.625 0 L 1.546875 0 L 1.546875 -13.03125 L 11.390625 -13.03125 L 11.390625 -10.609375 L 4.546875 -10.609375 L 4.546875 -7.78125 L 10.59375 -7.78125 L 10.59375 -5.4375 L 4.546875 -5.4375 L 4.546875 -2.421875 Z M 11.625 -2.421875 "/></g></g></g><g fill="#1e0a0b" fill-opacity="1"><g transform="translate(223.564809, 210.457868)"><g><path d="M 1.546875 -13.03125 L 7.46875 -13.03125 C 8.875 -13.03125 10.117188 -12.757812 11.203125 -12.21875 C 12.296875 -11.675781 13.140625 -10.914062 13.734375 -9.9375 C 14.335938 -8.957031 14.640625 -7.816406 14.640625 -6.515625 C 14.640625 -5.210938 14.335938 -4.070312 13.734375 -3.09375 C 13.140625 -2.113281 12.296875 -1.351562 11.203125 -0.8125 C 10.117188 -0.269531 8.875 0 7.46875 0 L 1.546875 0 Z M 7.3125 -2.46875 C 8.613281 -2.46875 9.648438 -2.832031 10.421875 -3.5625 C 11.203125 -4.289062 11.59375 -5.273438 11.59375 -6.515625 C 11.59375 -7.753906 11.203125 -8.734375 10.421875 -9.453125 C 9.648438 -10.179688 8.613281 -10.546875 7.3125 -10.546875 L 4.5625 -10.546875 L 4.5625 -2.46875 Z M 7.3125 -2.46875 "/></g></g></g><g fill="#1e0a0b" fill-opacity="1"><g transform="translate(238.926521, 210.457868)"><g><path d="M 1.546875 -13.03125 L 4.5625 -13.03125 L 4.5625 0 L 1.546875 0 Z M 1.546875 -13.03125 "/></g></g></g><g fill="#1e0a0b" fill-opacity="1"><g transform="translate(245.026577, 210.457868)"><g><path d="M 7.78125 0.21875 C 6.445312 0.21875 5.242188 -0.0664062 4.171875 -0.640625 C 3.097656 -1.210938 2.253906 -2.007812 1.640625 -3.03125 C 1.023438 -4.0625 0.71875 -5.222656 0.71875 -6.515625 C 0.71875 -7.804688 1.023438 -8.960938 1.640625 -9.984375 C 2.253906 -11.003906 3.097656 -11.800781 4.171875 -12.375 C 5.242188 -12.957031 6.453125 -13.25 7.796875 -13.25 C 8.921875 -13.25 9.9375 -13.050781 10.84375 -12.65625 C 11.757812 -12.257812 12.53125 -11.6875 13.15625 -10.9375 L 11.21875 -9.15625 C 10.34375 -10.175781 9.253906 -10.6875 7.953125 -10.6875 C 7.140625 -10.6875 6.414062 -10.507812 5.78125 -10.15625 C 5.15625 -9.800781 4.664062 -9.304688 4.3125 -8.671875 C 3.957031 -8.035156 3.78125 -7.316406 3.78125 -6.515625 C 3.78125 -5.703125 3.957031 -4.976562 4.3125 -4.34375 C 4.664062 -3.71875 5.15625 -3.226562 5.78125 -2.875 C 6.414062 -2.519531 7.140625 -2.34375 7.953125 -2.34375 C 9.253906 -2.34375 10.34375 -2.859375 11.21875 -3.890625 L 13.15625 -2.109375 C 12.53125 -1.347656 11.757812 -0.769531 10.84375 -0.375 C 9.925781 0.0195312 8.90625 0.21875 7.78125 0.21875 Z M 7.78125 0.21875 "/></g></g></g><g fill="#1e0a0b" fill-opacity="1"><g transform="translate(258.658709, 210.457868)"><g><path d="M 10.125 -2.796875 L 4.078125 -2.796875 L 2.921875 0 L -0.171875 0 L 5.640625 -13.03125 L 8.609375 -13.03125 L 14.4375 0 L 11.28125 0 Z M 9.171875 -5.078125 L 7.109375 -10.0625 L 5.046875 -5.078125 Z M 9.171875 -5.078125 "/></g></g></g><g fill="#1e0a0b" fill-opacity="1"><g transform="translate(272.904565, 210.457868)"><g><path d="M 1.546875 -13.03125 L 4.5625 -13.03125 L 4.5625 -2.453125 L 11.09375 -2.453125 L 11.09375 0 L 1.546875 0 Z M 1.546875 -13.03125 "/></g></g></g><g fill="#1e0a0b" fill-opacity="1"><g transform="translate(284.137593, 210.457868)"><g/></g></g><g fill="#1e0a0b" fill-opacity="1"><g transform="translate(289.400753, 210.457868)"><g><path d="M 7.78125 0.21875 C 6.445312 0.21875 5.242188 -0.0664062 4.171875 -0.640625 C 3.097656 -1.210938 2.253906 -2.007812 1.640625 -3.03125 C 1.023438 -4.0625 0.71875 -5.222656 0.71875 -6.515625 C 0.71875 -7.804688 1.023438 -8.960938 1.640625 -9.984375 C 2.253906 -11.003906 3.097656 -11.800781 4.171875 -12.375 C 5.242188 -12.957031 6.453125 -13.25 7.796875 -13.25 C 8.921875 -13.25 9.9375 -13.050781 10.84375 -12.65625 C 11.757812 -12.257812 12.53125 -11.6875 13.15625 -10.9375 L 11.21875 -9.15625 C 10.34375 -10.175781 9.253906 -10.6875 7.953125 -10.6875 C 7.140625 -10.6875 6.414062 -10.507812 5.78125 -10.15625 C 5.15625 -9.800781 4.664062 -9.304688 4.3125 -8.671875 C 3.957031 -8.035156 3.78125 -7.316406 3.78125 -6.515625 C 3.78125 -5.703125 3.957031 -4.976562 4.3125 -4.34375 C 4.664062 -3.71875 5.15625 -3.226562 5.78125 -2.875 C 6.414062 -2.519531 7.140625 -2.34375 7.953125 -2.34375 C 9.253906 -2.34375 10.34375 -2.859375 11.21875 -3.890625 L 13.15625 -2.109375 C 12.53125 -1.347656 11.757812 -0.769531 10.84375 -0.375 C 9.925781 0.0195312 8.90625 0.21875 7.78125 0.21875 Z M 7.78125 0.21875 "/></g></g></g><g fill="#1e0a0b" fill-opacity="1"><g transform="translate(303.032886, 210.457868)"><g><path d="M 1.546875 -13.03125 L 4.5625 -13.03125 L 4.5625 -2.453125 L 11.09375 -2.453125 L 11.09375 0 L 1.546875 0 Z M 1.546875 -13.03125 "/></g></g></g><g fill="#1e0a0b" fill-opacity="1"><g transform="translate(314.265902, 210.457868)"><g><path d="M 1.546875 -13.03125 L 4.5625 -13.03125 L 4.5625 0 L 1.546875 0 Z M 1.546875 -13.03125 "/></g></g></g><g fill="#1e0a0b" fill-opacity="1"><g transform="translate(320.365969, 210.457868)"><g><path d="M 13.484375 -13.03125 L 13.484375 0 L 11.015625 0 L 4.515625 -7.90625 L 4.515625 0 L 1.546875 0 L 1.546875 -13.03125 L 4.03125 -13.03125 L 10.515625 -5.125 L 10.515625 -13.03125 Z M 13.484375 -13.03125 "/></g></g></g><g fill="#1e0a0b" fill-opacity="1"><g transform="translate(335.39293, 210.457868)"><g><path d="M 1.546875 -13.03125 L 4.5625 -13.03125 L 4.5625 0 L 1.546875 0 Z M 1.546875 -13.03125 "/></g></g></g><g fill="#1e0a0b" fill-opacity="1"><g transform="translate(341.492997, 210.457868)"><g><path d="M 7.78125 0.21875 C 6.445312 0.21875 5.242188 -0.0664062 4.171875 -0.640625 C 3.097656 -1.210938 2.253906 -2.007812 1.640625 -3.03125 C 1.023438 -4.0625 0.71875 -5.222656 0.71875 -6.515625 C 0.71875 -7.804688 1.023438 -8.960938 1.640625 -9.984375 C 2.253906 -11.003906 3.097656 -11.800781 4.171875 -12.375 C 5.242188 -12.957031 6.453125 -13.25 7.796875 -13.25 C 8.921875 -13.25 9.9375 -13.050781 10.84375 -12.65625 C 11.757812 -12.257812 12.53125 -11.6875 13.15625 -10.9375 L 11.21875 -9.15625 C 10.34375 -10.175781 9.253906 -10.6875 7.953125 -10.6875 C 7.140625 -10.6875 6.414062 -10.507812 5.78125 -10.15625 C 5.15625 -9.800781 4.664062 -9.304688 4.3125 -8.671875 C 3.957031 -8.035156 3.78125 -7.316406 3.78125 -6.515625 C 3.78125 -5.703125 3.957031 -4.976562 4.3125 -4.34375 C 4.664062 -3.71875 5.15625 -3.226562 5.78125 -2.875 C 6.414062 -2.519531 7.140625 -2.34375 7.953125 -2.34375 C 9.253906 -2.34375 10.34375 -2.859375 11.21875 -3.890625 L 13.15625 -2.109375 C 12.53125 -1.347656 11.757812 -0.769531 10.84375 -0.375 C 9.925781 0.0195312 8.90625 0.21875 7.78125 0.21875 Z M 7.78125 0.21875 "/></g></g></g></svg>