<svg xmlns="http://www.w3.org/2000/svg" xmlns:xlink="http://www.w3.org/1999/xlink" width="500" zoomAndPan="magnify" viewBox="0 0 375 374.999991" height="500" preserveAspectRatio="xMidYMid meet" version="1.0"><defs><g/><clipPath id="6316a3c544"><path d="M 82.460938 161.757812 L 116 161.757812 L 116 221 L 82.460938 221 Z M 82.460938 161.757812 " clip-rule="nonzero"/></clipPath><clipPath id="2468e8da0d"><path d="M 103 201 L 118.460938 201 L 118.460938 227 L 103 227 Z M 103 201 " clip-rule="nonzero"/></clipPath></defs><g fill="#ffffff" fill-opacity="1"><g transform="translate(133.887037, 192.080625)"><g><path d="M 11.25 -9.203125 C 12.164062 -8.773438 12.878906 -8.21875 13.390625 -7.53125 C 13.898438 -6.84375 14.15625 -6.046875 14.15625 -5.140625 C 14.15625 -3.367188 13.570312 -2.066406 12.40625 -1.234375 C 11.25 -0.410156 9.800781 0 8.0625 0 L 2.25 0 L 2.25 -17.453125 L 7.375 -17.453125 C 9.226562 -17.453125 10.679688 -17.078125 11.734375 -16.328125 C 12.796875 -15.578125 13.328125 -14.488281 13.328125 -13.0625 C 13.328125 -12.195312 13.144531 -11.4375 12.78125 -10.78125 C 12.414062 -10.125 11.90625 -9.597656 11.25 -9.203125 Z M 5.6875 -10.3125 L 7.78125 -10.3125 C 8.414062 -10.3125 8.90625 -10.503906 9.25 -10.890625 C 9.59375 -11.285156 9.765625 -11.765625 9.765625 -12.328125 C 9.765625 -12.921875 9.566406 -13.367188 9.171875 -13.671875 C 8.785156 -13.984375 8.242188 -14.140625 7.546875 -14.140625 L 5.6875 -14.140625 Z M 7.890625 -3.203125 C 8.703125 -3.203125 9.359375 -3.363281 9.859375 -3.6875 C 10.359375 -4.007812 10.609375 -4.492188 10.609375 -5.140625 C 10.609375 -6.378906 9.625 -7 7.65625 -7 L 5.6875 -7 L 5.6875 -3.203125 Z M 7.890625 -3.203125 "/></g></g></g><g fill="#ffffff" fill-opacity="1"><g transform="translate(152.270428, 192.080625)"><g><path d="M 5.6875 -17.453125 L 5.6875 0 L 2.25 0 L 2.25 -17.453125 Z M 5.6875 -17.453125 "/></g></g></g><g fill="#ffffff" fill-opacity="1"><g transform="translate(163.253192, 192.080625)"><g><path d="M 17.984375 -17.453125 L 17.984375 0.71875 L 17.890625 0.71875 L 5.671875 -10.3125 L 5.734375 0 L 2.25 0 L 2.25 -18.140625 L 2.390625 -18.140625 L 14.59375 -6.953125 L 14.515625 -17.453125 Z M 17.984375 -17.453125 "/></g></g></g><g fill="#ffffff" fill-opacity="1"><g transform="translate(186.522886, 192.080625)"><g><path d="M 10.890625 -3.421875 L 5.09375 -3.421875 L 3.671875 0 L 0.28125 0 L 8.15625 -18.140625 L 8.34375 -18.140625 L 16.21875 0 L 12.234375 0 Z M 9.75 -6.3125 L 8.0625 -10.5625 L 6.3125 -6.3125 Z M 9.75 -6.3125 "/></g></g></g><g fill="#ffffff" fill-opacity="1"><g transform="translate(206.068555, 192.080625)"><g><path d="M 20.234375 -18.171875 L 20.234375 0 L 16.796875 0 L 16.796875 -8.328125 L 11.09375 -0.234375 L 11.046875 -0.234375 L 5.578125 -7.796875 L 5.578125 0 L 2.25 0 L 2.25 -18.171875 L 2.28125 -18.171875 L 11.125 -5.625 L 20.1875 -18.171875 Z M 20.234375 -18.171875 "/></g></g></g><g fill="#ffffff" fill-opacity="1"><g transform="translate(231.591638, 192.080625)"><g><path d="M 5.6875 -17.453125 L 5.6875 0 L 2.25 0 L 2.25 -17.453125 Z M 5.6875 -17.453125 "/></g></g></g><g fill="#ffffff" fill-opacity="1"><g transform="translate(242.574404, 192.080625)"><g><path d="M 11.671875 0 L 8 -5.546875 L 5.6875 -5.546875 L 5.6875 0 L 2.25 0 L 2.25 -17.453125 L 7.546875 -17.453125 C 9.710938 -17.453125 11.390625 -16.925781 12.578125 -15.875 C 13.773438 -14.820312 14.375 -13.390625 14.375 -11.578125 C 14.375 -10.503906 14.144531 -9.492188 13.6875 -8.546875 C 13.238281 -7.609375 12.550781 -6.867188 11.625 -6.328125 L 15.671875 0 Z M 5.6875 -8.875 L 8.140625 -8.875 C 9.066406 -8.875 9.742188 -9.144531 10.171875 -9.6875 C 10.597656 -10.226562 10.8125 -10.816406 10.8125 -11.453125 C 10.8125 -12.085938 10.628906 -12.691406 10.265625 -13.265625 C 9.898438 -13.847656 9.195312 -14.140625 8.15625 -14.140625 L 5.6875 -14.140625 Z M 5.6875 -8.875 "/></g></g></g><g fill="#ffffff" fill-opacity="1"><g transform="translate(261.882867, 192.080625)"><g><path d="M 10.890625 -3.421875 L 5.09375 -3.421875 L 3.671875 0 L 0.28125 0 L 8.15625 -18.140625 L 8.34375 -18.140625 L 16.21875 0 L 12.234375 0 Z M 9.75 -6.3125 L 8.0625 -10.5625 L 6.3125 -6.3125 Z M 9.75 -6.3125 "/></g></g></g><g fill="#ffffff" fill-opacity="1"><g transform="translate(124.972095, 207.361479)"><g><path d="M 12.828125 -11.53125 L 12.828125 0 L 10.65625 0 L 10.65625 -5.28125 L 7.046875 -0.15625 L 7.015625 -0.15625 L 3.53125 -4.953125 L 3.53125 0 L 1.421875 0 L 1.421875 -11.53125 L 1.4375 -11.53125 L 7.0625 -3.5625 L 12.8125 -11.53125 Z M 12.828125 -11.53125 "/></g></g></g><g fill="#ffffff" fill-opacity="1"><g transform="translate(142.051344, 207.361479)"><g><path d="M 8.984375 -11.078125 L 8.984375 -8.96875 L 3.609375 -8.96875 L 3.609375 -6.609375 L 8.359375 -6.609375 L 8.359375 -4.5 L 3.609375 -4.5 L 3.609375 -2.109375 L 9.1875 -2.109375 L 9.1875 0 L 1.421875 0 L 1.421875 -11.078125 Z M 8.984375 -11.078125 "/></g></g></g><g fill="#ffffff" fill-opacity="1"><g transform="translate(154.891361, 207.361479)"><g><path d="M 1.421875 -11.078125 L 4.734375 -11.078125 C 6.148438 -11.078125 7.3125 -10.800781 8.21875 -10.25 C 9.132812 -9.707031 9.800781 -9 10.21875 -8.125 C 10.632812 -7.257812 10.84375 -6.332031 10.84375 -5.34375 C 10.84375 -4.28125 10.59375 -3.34375 10.09375 -2.53125 C 9.59375 -1.71875 8.914062 -1.09375 8.0625 -0.65625 C 7.21875 -0.21875 6.289062 0 5.28125 0 L 1.421875 0 Z M 4.90625 -2.109375 C 6.039062 -2.109375 6.9375 -2.398438 7.59375 -2.984375 C 8.257812 -3.566406 8.59375 -4.398438 8.59375 -5.484375 C 8.59375 -6.367188 8.410156 -7.070312 8.046875 -7.59375 C 7.679688 -8.113281 7.253906 -8.472656 6.765625 -8.671875 C 6.273438 -8.878906 5.816406 -8.984375 5.390625 -8.984375 L 3.609375 -8.984375 L 3.609375 -2.109375 Z M 4.90625 -2.109375 "/></g></g></g><g fill="#ffffff" fill-opacity="1"><g transform="translate(169.309816, 207.361479)"><g><path d="M 3.609375 -11.078125 L 3.609375 0 L 1.421875 0 L 1.421875 -11.078125 Z M 3.609375 -11.078125 "/></g></g></g><g fill="#ffffff" fill-opacity="1"><g transform="translate(177.173986, 207.361479)"><g><path d="M 9.734375 -0.921875 C 9.453125 -0.691406 9.003906 -0.457031 8.390625 -0.21875 C 7.785156 0.0078125 7.117188 0.125 6.390625 0.125 C 5.242188 0.125 4.242188 -0.125 3.390625 -0.625 C 2.535156 -1.132812 1.878906 -1.8125 1.421875 -2.65625 C 0.972656 -3.5 0.75 -4.429688 0.75 -5.453125 C 0.75 -6.554688 0.972656 -7.546875 1.421875 -8.421875 C 1.878906 -9.296875 2.515625 -9.972656 3.328125 -10.453125 C 4.140625 -10.941406 5.078125 -11.1875 6.140625 -11.1875 C 6.804688 -11.1875 7.425781 -11.097656 8 -10.921875 C 8.570312 -10.742188 9.078125 -10.519531 9.515625 -10.25 L 8.65625 -8.1875 C 7.863281 -8.789062 7.050781 -9.09375 6.21875 -9.09375 C 5.65625 -9.09375 5.125 -8.9375 4.625 -8.625 C 4.132812 -8.3125 3.742188 -7.882812 3.453125 -7.34375 C 3.171875 -6.8125 3.03125 -6.21875 3.03125 -5.5625 C 3.03125 -4.851562 3.164062 -4.226562 3.4375 -3.6875 C 3.707031 -3.15625 4.09375 -2.738281 4.59375 -2.4375 C 5.09375 -2.132812 5.675781 -1.984375 6.34375 -1.984375 C 6.882812 -1.984375 7.367188 -2.070312 7.796875 -2.25 C 8.234375 -2.425781 8.578125 -2.632812 8.828125 -2.875 Z M 9.734375 -0.921875 "/></g></g></g><g fill="#ffffff" fill-opacity="1"><g transform="translate(190.480021, 207.361479)"><g><path d="M 6.90625 -2.171875 L 3.234375 -2.171875 L 2.328125 0 L 0.1875 0 L 5.171875 -11.515625 L 5.296875 -11.515625 L 10.296875 0 L 7.765625 0 Z M 6.1875 -4 L 5.109375 -6.703125 L 4 -4 Z M 6.1875 -4 "/></g></g></g><g fill="#ffffff" fill-opacity="1"><g transform="translate(203.771022, 207.361479)"><g><path d="M 3.609375 -11.078125 L 3.609375 -2.109375 L 8.8125 -2.109375 L 8.8125 0 L 1.421875 0 L 1.421875 -11.078125 Z M 3.609375 -11.078125 "/></g></g></g><g fill="#ffffff" fill-opacity="1"><g transform="translate(216.235218, 207.361479)"><g/></g></g><g fill="#ffffff" fill-opacity="1"><g transform="translate(223.949065, 207.361479)"><g><path d="M 9.734375 -0.921875 C 9.453125 -0.691406 9.003906 -0.457031 8.390625 -0.21875 C 7.785156 0.0078125 7.117188 0.125 6.390625 0.125 C 5.242188 0.125 4.242188 -0.125 3.390625 -0.625 C 2.535156 -1.132812 1.878906 -1.8125 1.421875 -2.65625 C 0.972656 -3.5 0.75 -4.429688 0.75 -5.453125 C 0.75 -6.554688 0.972656 -7.546875 1.421875 -8.421875 C 1.878906 -9.296875 2.515625 -9.972656 3.328125 -10.453125 C 4.140625 -10.941406 5.078125 -11.1875 6.140625 -11.1875 C 6.804688 -11.1875 7.425781 -11.097656 8 -10.921875 C 8.570312 -10.742188 9.078125 -10.519531 9.515625 -10.25 L 8.65625 -8.1875 C 7.863281 -8.789062 7.050781 -9.09375 6.21875 -9.09375 C 5.65625 -9.09375 5.125 -8.9375 4.625 -8.625 C 4.132812 -8.3125 3.742188 -7.882812 3.453125 -7.34375 C 3.171875 -6.8125 3.03125 -6.21875 3.03125 -5.5625 C 3.03125 -4.851562 3.164062 -4.226562 3.4375 -3.6875 C 3.707031 -3.15625 4.09375 -2.738281 4.59375 -2.4375 C 5.09375 -2.132812 5.675781 -1.984375 6.34375 -1.984375 C 6.882812 -1.984375 7.367188 -2.070312 7.796875 -2.25 C 8.234375 -2.425781 8.578125 -2.632812 8.828125 -2.875 Z M 9.734375 -0.921875 "/></g></g></g><g fill="#ffffff" fill-opacity="1"><g transform="translate(237.2551, 207.361479)"><g><path d="M 3.609375 -11.078125 L 3.609375 -2.109375 L 8.8125 -2.109375 L 8.8125 0 L 1.421875 0 L 1.421875 -11.078125 Z M 3.609375 -11.078125 "/></g></g></g><g fill="#ffffff" fill-opacity="1"><g transform="translate(249.719296, 207.361479)"><g><path d="M 3.609375 -11.078125 L 3.609375 0 L 1.421875 0 L 1.421875 -11.078125 Z M 3.609375 -11.078125 "/></g></g></g><g fill="#ffffff" fill-opacity="1"><g transform="translate(257.58347, 207.361479)"><g><path d="M 11.40625 -11.078125 L 11.40625 0.453125 L 11.34375 0.453125 L 3.59375 -6.546875 L 3.640625 0 L 1.421875 0 L 1.421875 -11.515625 L 1.515625 -11.515625 L 9.25 -4.40625 L 9.203125 -11.078125 Z M 11.40625 -11.078125 "/></g></g></g><g fill="#ffffff" fill-opacity="1"><g transform="translate(273.234611, 207.361479)"><g><path d="M 3.609375 -11.078125 L 3.609375 0 L 1.421875 0 L 1.421875 -11.078125 Z M 3.609375 -11.078125 "/></g></g></g><g fill="#ffffff" fill-opacity="1"><g transform="translate(281.098785, 207.361479)"><g><path d="M 9.734375 -0.921875 C 9.453125 -0.691406 9.003906 -0.457031 8.390625 -0.21875 C 7.785156 0.0078125 7.117188 0.125 6.390625 0.125 C 5.242188 0.125 4.242188 -0.125 3.390625 -0.625 C 2.535156 -1.132812 1.878906 -1.8125 1.421875 -2.65625 C 0.972656 -3.5 0.75 -4.429688 0.75 -5.453125 C 0.75 -6.554688 0.972656 -7.546875 1.421875 -8.421875 C 1.878906 -9.296875 2.515625 -9.972656 3.328125 -10.453125 C 4.140625 -10.941406 5.078125 -11.1875 6.140625 -11.1875 C 6.804688 -11.1875 7.425781 -11.097656 8 -10.921875 C 8.570312 -10.742188 9.078125 -10.519531 9.515625 -10.25 L 8.65625 -8.1875 C 7.863281 -8.789062 7.050781 -9.09375 6.21875 -9.09375 C 5.65625 -9.09375 5.125 -8.9375 4.625 -8.625 C 4.132812 -8.3125 3.742188 -7.882812 3.453125 -7.34375 C 3.171875 -6.8125 3.03125 -6.21875 3.03125 -5.5625 C 3.03125 -4.851562 3.164062 -4.226562 3.4375 -3.6875 C 3.707031 -3.15625 4.09375 -2.738281 4.59375 -2.4375 C 5.09375 -2.132812 5.675781 -1.984375 6.34375 -1.984375 C 6.882812 -1.984375 7.367188 -2.070312 7.796875 -2.25 C 8.234375 -2.425781 8.578125 -2.632812 8.828125 -2.875 Z M 9.734375 -0.921875 "/></g></g></g><g clip-path="url(#6316a3c544)"><path fill="#ffffff" d="M 106.25 193.722656 L 109.261719 187.871094 C 109.476562 187.457031 109.472656 186.988281 109.289062 186.59375 L 114.730469 176.015625 L 114.761719 175.953125 C 115.828125 173.421875 116.003906 170.636719 115.261719 168.117188 C 114.84375 166.6875 114.171875 165.457031 113.265625 164.464844 C 112.3125 163.417969 110.925781 162.808594 109.46875 162.789062 C 108.984375 162.78125 108.222656 162.773438 107.625 162.777344 L 106.085938 161.976562 C 105.855469 161.855469 105.605469 161.796875 105.347656 161.796875 C 104.464844 161.796875 103.746094 162.515625 103.746094 163.398438 L 103.746094 163.949219 C 103.746094 164.832031 104.464844 165.550781 105.347656 165.550781 C 105.605469 165.550781 105.855469 165.488281 106.085938 165.367188 L 107.621094 164.570312 C 108.070312 164.570312 108.699219 164.570312 109.445312 164.582031 C 110.410156 164.59375 111.320312 164.992188 111.941406 165.671875 C 112.660156 166.460938 113.199219 167.453125 113.542969 168.621094 C 114.164062 170.738281 114.015625 173.085938 113.121094 175.226562 L 107.695312 185.773438 C 107.269531 185.855469 106.886719 186.125 106.671875 186.539062 L 103.660156 192.390625 C 103.261719 193.160156 102.511719 193.621094 101.644531 193.621094 C 100.777344 193.621094 100.023438 193.160156 99.625 192.390625 L 96.613281 186.539062 C 96.398438 186.125 96.015625 185.855469 95.589844 185.773438 L 90.164062 175.226562 C 89.269531 173.082031 89.121094 170.738281 89.746094 168.621094 C 90.085938 167.453125 90.625 166.460938 91.34375 165.671875 C 91.964844 164.992188 92.875 164.59375 93.839844 164.582031 C 94.589844 164.570312 95.214844 164.566406 95.664062 164.570312 L 97.199219 165.367188 C 97.433594 165.488281 97.679688 165.550781 97.9375 165.550781 C 98.347656 165.550781 98.753906 165.386719 99.050781 165.097656 C 99.367188 164.796875 99.539062 164.386719 99.539062 163.949219 L 99.539062 163.398438 C 99.539062 162.515625 98.820312 161.796875 97.9375 161.796875 C 97.679688 161.796875 97.433594 161.855469 97.199219 161.976562 L 95.660156 162.777344 C 95.0625 162.773438 94.304688 162.78125 93.816406 162.789062 C 92.359375 162.808594 90.976562 163.417969 90.019531 164.464844 C 89.113281 165.457031 88.441406 166.6875 88.023438 168.117188 C 87.28125 170.636719 87.460938 173.421875 88.523438 175.953125 L 88.539062 175.984375 L 93.996094 186.59375 C 93.8125 186.984375 93.808594 187.457031 94.023438 187.871094 L 97.035156 193.722656 C 97.730469 195.078125 98.964844 196.027344 100.398438 196.382812 L 100.398438 209.496094 C 100.398438 214.261719 96.523438 218.136719 91.761719 218.136719 C 87.988281 218.136719 84.921875 215.070312 84.921875 211.300781 C 84.921875 207.53125 87.988281 204.464844 91.761719 204.464844 L 99.5 204.464844 L 99.5 201.996094 L 91.761719 201.996094 C 86.632812 201.996094 82.457031 206.171875 82.457031 211.300781 C 82.457031 216.429688 86.632812 220.601562 91.761719 220.601562 C 97.882812 220.601562 102.863281 215.621094 102.863281 209.496094 L 102.863281 196.386719 C 104.308594 196.039062 105.550781 195.085938 106.25 193.722656 " fill-opacity="1" fill-rule="nonzero"/></g><g clip-path="url(#2468e8da0d)"><path fill="#ffffff" d="M 115.769531 221.21875 C 115.769531 223.117188 114.222656 224.660156 112.324219 224.660156 C 110.425781 224.660156 108.882812 223.117188 108.882812 221.21875 C 108.882812 219.320312 110.425781 217.773438 112.324219 217.773438 C 112.8125 217.773438 113.273438 217.878906 113.691406 218.058594 C 113.539062 218.242188 113.378906 218.421875 113.207031 218.59375 L 112.980469 218.820312 C 112.769531 218.761719 112.554688 218.730469 112.324219 218.730469 C 110.953125 218.730469 109.835938 219.84375 109.835938 221.21875 C 109.835938 222.59375 110.953125 223.707031 112.324219 223.707031 C 113.699219 223.707031 114.8125 222.59375 114.8125 221.21875 C 114.8125 220.992188 114.78125 220.773438 114.722656 220.5625 L 114.949219 220.335938 C 115.125 220.160156 115.292969 219.976562 115.457031 219.792969 C 115.65625 220.226562 115.769531 220.707031 115.769531 221.21875 Z M 118.097656 212.742188 C 118.097656 206.816406 113.277344 201.996094 107.355469 201.996094 L 103.761719 201.996094 L 103.761719 204.464844 L 107.355469 204.464844 C 111.917969 204.464844 115.632812 208.175781 115.632812 212.742188 C 115.632812 214.015625 115.34375 215.242188 114.804688 216.355469 C 114.058594 215.972656 113.21875 215.757812 112.324219 215.757812 C 109.316406 215.757812 106.867188 218.207031 106.867188 221.21875 C 106.867188 224.226562 109.316406 226.679688 112.324219 226.679688 C 115.335938 226.679688 117.785156 224.226562 117.785156 221.21875 C 117.785156 220.011719 117.390625 218.894531 116.726562 217.992188 C 117.621094 216.40625 118.097656 214.609375 118.097656 212.742188 " fill-opacity="1" fill-rule="nonzero"/></g></svg>