<svg xmlns="http://www.w3.org/2000/svg" xmlns:xlink="http://www.w3.org/1999/xlink" width="500" zoomAndPan="magnify" viewBox="0 0 375 374.999991" height="500" preserveAspectRatio="xMidYMid meet" version="1.0"><defs><clipPath id="99ed387cee"><path d="M 108 104.835938 L 253 104.835938 L 253 269.835938 L 108 269.835938 Z M 108 104.835938 " clip-rule="nonzero"/></clipPath></defs><g clip-path="url(#99ed387cee)"><path fill="#010101" d="M 211.332031 162.332031 C 216.707031 165.019531 217.273438 170.109375 212.179688 174.351562 C 210.625 175.480469 208.925781 176.332031 207.085938 177.039062 C 201.710938 179.160156 196.191406 180.996094 190.53125 183.117188 C 191.097656 183.402344 191.378906 183.683594 191.804688 183.824219 C 193.503906 184.816406 195.199219 185.523438 196.898438 186.511719 C 200.578125 188.632812 201.851562 192.167969 201.851562 196.128906 C 201.851562 198.390625 200.578125 200.371094 198.738281 201.640625 C 195.90625 203.621094 192.9375 205.316406 189.964844 207.015625 C 189.398438 207.296875 188.832031 207.4375 188.125 207.863281 C 189.257812 208.570312 190.246094 209.136719 191.097656 209.84375 C 196.757812 213.945312 198.738281 219.601562 197.464844 226.386719 C 197.179688 227.519531 196.332031 228.792969 195.484375 229.5 C 192.9375 231.621094 190.390625 233.457031 187.699219 235.4375 C 186.710938 236.003906 185.71875 236.570312 184.730469 237.277344 C 185.863281 238.691406 186.992188 239.820312 187.84375 241.234375 C 190.390625 245.195312 190.105469 248.023438 186.992188 251.414062 C 185.4375 253.113281 183.597656 254.667969 182.039062 256.222656 C 182.890625 258.0625 183.738281 259.476562 184.164062 261.03125 C 184.871094 263.433594 184.304688 265.699219 182.324219 267.394531 C 181.617188 268.101562 181.050781 268.808594 180.34375 269.515625 L 178.363281 267.535156 C 176.238281 265.554688 175.53125 263.011719 176.664062 260.183594 C 177.089844 258.910156 177.796875 257.921875 178.503906 256.507812 C 177.089844 255.234375 175.671875 253.820312 174.257812 252.40625 C 170.011719 247.878906 169.871094 244.628906 173.691406 239.820312 C 174.257812 239.113281 174.964844 238.40625 175.671875 237.558594 C 173.550781 236.144531 171.285156 234.589844 169.164062 233.175781 C 168.882812 232.890625 168.738281 232.75 168.457031 232.609375 C 165.484375 230.347656 162.65625 228.085938 162.65625 223.84375 C 162.65625 219.035156 163.785156 214.792969 167.464844 211.539062 C 168.882812 210.125 170.578125 208.996094 172.277344 207.722656 C 170.863281 207.015625 169.445312 206.449219 168.03125 205.601562 C 165.910156 204.46875 163.785156 203.339844 161.949219 201.78125 C 157.5625 198.25 157.417969 191.320312 161.804688 187.785156 C 163.503906 186.371094 165.625 185.378906 167.609375 184.25 C 168.171875 183.824219 168.882812 183.542969 169.871094 183.117188 C 164.070312 180.996094 158.410156 179.015625 153.03125 176.894531 C 150.910156 176.046875 148.789062 174.917969 147.089844 173.359375 C 143.550781 170.25 144.117188 165.867188 148.222656 163.320312 C 151.191406 161.484375 154.589844 161.058594 158.125 160.777344 C 159.683594 160.632812 161.382812 160.210938 162.9375 159.785156 C 164.496094 159.363281 167.464844 160.070312 168.738281 161.199219 C 169.589844 162.046875 170.71875 162.753906 171.851562 163.179688 C 173.410156 163.746094 173.691406 164.3125 172.984375 165.867188 C 171.851562 168.128906 169.730469 169.261719 167.324219 169.261719 C 164.777344 169.261719 162.230469 168.695312 159.683594 168.554688 C 158.835938 168.410156 157.84375 168.695312 156.996094 168.835938 C 156.851562 169.117188 156.851562 169.261719 156.851562 169.542969 C 157.417969 169.96875 157.84375 170.390625 158.410156 170.675781 C 164.636719 173.078125 170.71875 175.480469 177.230469 178.027344 L 177.230469 175.625 C 176.945312 161.765625 176.804688 148.050781 176.378906 134.191406 C 176.378906 131.222656 175.25 128.253906 174.117188 125.566406 C 173.832031 124.578125 172.558594 124.011719 173.269531 122.457031 C 173.832031 122.3125 174.683594 122.3125 175.671875 122.171875 L 184.730469 122.171875 C 185.4375 122.171875 186.144531 122.3125 186.992188 122.3125 C 187.136719 123.445312 187.175781 124.050781 186.144531 125.140625 C 183.738281 127.6875 183.738281 133.0625 183.738281 133.484375 C 183.597656 147.910156 183.3125 162.332031 183.03125 176.753906 C 183.03125 176.894531 183.171875 177.179688 183.171875 177.601562 C 190.105469 174.917969 197.039062 172.652344 203.691406 169.542969 C 202.839844 167.988281 201.992188 167.988281 200.71875 168.128906 C 198.171875 168.410156 195.484375 168.835938 192.9375 168.835938 C 190.671875 168.695312 188.691406 167.703125 187.558594 165.582031 C 186.570312 163.886719 186.992188 163.320312 188.691406 162.613281 C 189.824219 162.191406 190.8125 161.625 191.664062 160.777344 C 193.21875 159.363281 196.050781 158.796875 198.03125 159.644531 C 199.164062 160.210938 200.4375 160.351562 201.566406 160.351562 C 204.964844 160.492188 208.21875 160.777344 211.332031 162.332031 Z M 178.929688 252.121094 L 178.929688 241.234375 C 173.550781 244.910156 173.691406 248.871094 178.929688 252.121094 Z M 166.757812 197.542969 C 170.296875 199.519531 173.976562 201.21875 177.796875 203.339844 L 177.796875 187.359375 C 176.097656 187.925781 174.683594 188.207031 173.410156 188.773438 C 171.003906 189.90625 168.597656 190.894531 166.476562 192.449219 C 164.070312 194.148438 164.070312 195.984375 166.757812 197.542969 Z M 164.777344 161.484375 C 164.351562 161.484375 164.070312 161.765625 164.070312 162.191406 C 164.070312 162.613281 164.351562 162.898438 164.777344 162.898438 C 165.203125 162.898438 165.484375 162.613281 165.484375 162.191406 C 165.484375 161.765625 165.203125 161.484375 164.777344 161.484375 Z M 195.199219 162.898438 C 195.484375 162.898438 195.90625 162.613281 195.90625 162.191406 C 195.90625 161.765625 195.625 161.484375 195.199219 161.484375 C 194.777344 161.484375 194.492188 161.765625 194.492188 162.191406 C 194.492188 162.613281 194.777344 162.898438 195.199219 162.898438 Z M 190.671875 217.335938 C 188.410156 215.074219 185.578125 213.378906 183.171875 211.539062 C 182.890625 211.679688 182.75 211.824219 182.464844 211.964844 L 182.464844 232.328125 C 185.296875 230.0625 188.125 228.085938 190.53125 225.820312 C 193.359375 223.136719 193.503906 220.023438 190.671875 217.335938 Z M 194.632812 192.734375 C 191.519531 189.621094 187.136719 188.632812 182.890625 187.21875 L 182.890625 202.914062 C 186.851562 201.21875 190.957031 199.804688 194.492188 197.117188 C 196.191406 195.703125 196.332031 194.289062 194.632812 192.734375 Z M 181.898438 252.265625 C 186.992188 247.597656 186.992188 244.628906 181.898438 241.519531 Z M 168.597656 223.699219 C 170.863281 227.660156 174.964844 229.5 178.363281 232.042969 L 178.363281 211.539062 C 174.824219 213.519531 171.570312 215.074219 169.445312 217.902344 C 168.03125 219.601562 167.464844 221.722656 168.597656 223.699219 Z M 174.433594 119.769531 C 172.59375 118.214844 171.460938 115.949219 171.601562 113.265625 C 171.601562 108.457031 175.421875 104.640625 180.234375 104.640625 C 185.042969 104.640625 188.867188 108.457031 188.867188 113.265625 C 188.867188 115.949219 187.734375 118.214844 185.894531 119.769531 C 185.328125 119.628906 184.902344 119.628906 184.480469 119.628906 L 175.421875 119.628906 C 175 119.769531 174.714844 119.769531 174.433594 119.769531 Z M 108.601562 119.628906 C 107.609375 118.214844 108.882812 116.234375 110.722656 116.375 L 157.5625 116.375 C 158.691406 116.375 159.542969 117.082031 159.824219 118.070312 C 160.675781 121.464844 163.644531 129.242188 172.984375 131.363281 C 173.976562 131.648438 174.683594 132.636719 174.683594 133.625 L 174.683594 145.644531 C 174.683594 147.34375 172.984375 148.472656 171.429688 147.765625 C 169.164062 146.777344 166.617188 145.082031 165.625 142.535156 C 163.785156 137.867188 146.242188 140.132812 146.242188 140.132812 C 146.242188 140.132812 138.457031 140.980469 135.628906 135.324219 C 135.203125 134.617188 134.496094 134.050781 133.648438 134.050781 C 130.675781 133.910156 124.023438 133.0625 121.902344 126.839844 C 121.621094 126.132812 120.910156 125.566406 120.0625 125.425781 C 117.089844 125 110.863281 123.726562 108.601562 119.628906 Z M 252.226562 119.628906 C 249.960938 123.726562 243.734375 125 240.765625 125.425781 C 239.914062 125.566406 239.207031 126.132812 238.925781 126.839844 C 236.800781 133.0625 230.152344 133.910156 227.179688 134.050781 C 226.332031 134.050781 225.625 134.617188 225.199219 135.324219 C 222.367188 140.980469 214.585938 140.132812 214.585938 140.132812 C 214.585938 140.132812 197.039062 137.867188 195.199219 142.535156 C 194.210938 145.082031 191.664062 146.777344 189.398438 147.765625 C 187.84375 148.472656 186.144531 147.34375 186.144531 145.644531 L 186.144531 133.625 C 186.144531 132.636719 186.851562 131.648438 187.84375 131.363281 C 197.179688 129.242188 200.152344 121.464844 201.003906 118.070312 C 201.285156 117.082031 202.132812 116.375 203.265625 116.375 L 250.105469 116.375 C 251.941406 116.234375 253.074219 118.214844 252.226562 119.628906 Z M 252.226562 119.628906 " fill-opacity="1" fill-rule="evenodd"/></g></svg>