<svg xmlns="http://www.w3.org/2000/svg" xmlns:xlink="http://www.w3.org/1999/xlink" width="500" zoomAndPan="magnify" viewBox="0 0 375 374.999991" height="500" preserveAspectRatio="xMidYMid meet" version="1.0"><defs><clipPath id="d3be8170a2"><path d="M 103.378906 76.589844 L 271 76.589844 L 271 280 L 103.378906 280 Z M 103.378906 76.589844 " clip-rule="nonzero"/></clipPath></defs><g clip-path="url(#d3be8170a2)"><path fill="#000000" d="M 186.730469 76.675781 C 188.320312 76.675781 189.910156 76.753906 191.496094 76.910156 C 193.078125 77.066406 194.652344 77.300781 196.214844 77.613281 C 197.777344 77.921875 199.320312 78.3125 200.84375 78.773438 C 202.367188 79.238281 203.867188 79.773438 205.335938 80.386719 C 206.808594 80.996094 208.246094 81.679688 209.652344 82.429688 C 211.054688 83.183594 212.417969 84.003906 213.742188 84.890625 C 215.066406 85.777344 216.34375 86.726562 217.578125 87.738281 C 218.808594 88.753906 219.984375 89.824219 221.113281 90.953125 C 222.238281 92.082031 223.304688 93.261719 224.316406 94.496094 C 225.328125 95.730469 226.273438 97.011719 227.160156 98.339844 C 228.042969 99.664062 228.863281 101.035156 229.613281 102.441406 C 230.363281 103.847656 231.042969 105.289062 231.652344 106.765625 C 232.261719 108.242188 232.796875 109.742188 233.261719 111.269531 C 233.722656 112.796875 234.109375 114.34375 234.417969 115.910156 C 234.730469 117.476562 234.964844 119.050781 235.121094 120.640625 C 235.277344 122.230469 235.355469 123.820312 235.355469 125.417969 C 235.355469 125.53125 235.351562 125.644531 235.351562 125.753906 L 187.066406 174.15625 C 186.953125 174.15625 186.839844 174.160156 186.730469 174.160156 C 185.136719 174.160156 183.546875 174.082031 181.960938 173.925781 C 180.378906 173.769531 178.804688 173.535156 177.242188 173.226562 C 175.679688 172.914062 174.136719 172.527344 172.613281 172.0625 C 171.089844 171.597656 169.59375 171.0625 168.121094 170.453125 C 166.648438 169.839844 165.210938 169.160156 163.808594 168.40625 C 162.402344 167.652344 161.039062 166.832031 159.714844 165.945312 C 158.390625 165.058594 157.113281 164.109375 155.882812 163.097656 C 154.652344 162.085938 153.472656 161.015625 152.347656 159.886719 C 151.21875 158.757812 150.152344 157.574219 149.140625 156.339844 C 148.132812 155.105469 147.183594 153.824219 146.296875 152.5 C 145.414062 151.171875 144.597656 149.804688 143.84375 148.394531 C 143.09375 146.988281 142.414062 145.546875 141.804688 144.070312 C 141.195312 142.597656 140.660156 141.09375 140.199219 139.566406 C 139.734375 138.039062 139.347656 136.492188 139.039062 134.929688 C 138.726562 133.363281 138.496094 131.785156 138.339844 130.195312 C 138.183594 128.609375 138.105469 127.015625 138.105469 125.417969 C 138.105469 123.820312 138.183594 122.230469 138.339844 120.640625 C 138.496094 119.050781 138.726562 117.476562 139.039062 115.910156 C 139.347656 114.34375 139.734375 112.796875 140.199219 111.269531 C 140.660156 109.742188 141.195312 108.242188 141.804688 106.765625 C 142.414062 105.289062 143.09375 103.847656 143.84375 102.441406 C 144.597656 101.035156 145.414062 99.664062 146.296875 98.339844 C 147.183594 97.011719 148.132812 95.730469 149.140625 94.496094 C 150.152344 93.261719 151.21875 92.082031 152.347656 90.953125 C 153.472656 89.824219 154.652344 88.753906 155.882812 87.738281 C 157.113281 86.726562 158.390625 85.777344 159.714844 84.890625 C 161.039062 84.003906 162.402344 83.183594 163.808594 82.429688 C 165.210938 81.679688 166.648438 80.996094 168.121094 80.386719 C 169.59375 79.773438 171.089844 79.238281 172.613281 78.773438 C 174.136719 78.3125 175.679688 77.921875 177.242188 77.613281 C 178.804688 77.300781 180.378906 77.066406 181.960938 76.910156 C 183.546875 76.753906 185.136719 76.675781 186.730469 76.675781 Z M 163.878906 205.746094 L 171.410156 198.199219 L 190.152344 216.988281 L 182.621094 224.535156 C 182.421875 224.730469 182.195312 224.882812 181.9375 224.988281 C 181.679688 225.09375 181.414062 225.148438 181.132812 225.148438 C 180.855469 225.148438 180.585938 225.09375 180.328125 224.988281 C 180.070312 224.882812 179.84375 224.730469 179.648438 224.535156 L 163.878906 208.726562 C 163.679688 208.527344 163.53125 208.300781 163.421875 208.042969 C 163.316406 207.78125 163.261719 207.515625 163.261719 207.234375 C 163.261719 206.957031 163.316406 206.6875 163.421875 206.429688 C 163.53125 206.171875 163.679688 205.941406 163.878906 205.746094 Z M 175.570312 194.027344 L 194.3125 212.8125 L 266.21875 140.730469 C 266.832031 140.113281 267.382812 139.445312 267.863281 138.71875 C 268.347656 137.992188 268.753906 137.226562 269.085938 136.421875 C 269.417969 135.617188 269.667969 134.785156 269.839844 133.929688 C 270.007812 133.074219 270.09375 132.210938 270.089844 131.339844 C 270.089844 130.46875 270.003906 129.605469 269.835938 128.75 C 269.664062 127.894531 269.414062 127.066406 269.082031 126.261719 C 268.75 125.457031 268.339844 124.691406 267.855469 123.964844 C 267.375 123.242188 266.824219 122.570312 266.210938 121.953125 C 265.59375 121.335938 264.925781 120.789062 264.203125 120.304688 C 263.480469 119.820312 262.71875 119.410156 261.914062 119.074219 C 261.109375 118.742188 260.28125 118.488281 259.429688 118.320312 C 258.578125 118.148438 257.714844 118.0625 256.84375 118.0625 C 255.976562 118.0625 255.113281 118.148438 254.261719 118.316406 C 253.410156 118.488281 252.582031 118.738281 251.777344 119.070312 C 250.972656 119.402344 250.210938 119.8125 249.484375 120.296875 C 248.761719 120.777344 248.09375 121.328125 247.476562 121.945312 L 175.570312 194.023438 Z M 254.289062 129.730469 L 224.738281 159.351562 C 224.464844 159.628906 224.25 159.949219 224.101562 160.308594 C 223.953125 160.671875 223.878906 161.046875 223.878906 161.441406 C 223.878906 161.832031 223.953125 162.207031 224.101562 162.570312 C 224.25 162.929688 224.464844 163.25 224.738281 163.527344 C 225.015625 163.804688 225.332031 164.015625 225.695312 164.167969 C 226.054688 164.316406 226.429688 164.390625 226.820312 164.390625 C 227.210938 164.390625 227.585938 164.316406 227.949219 164.167969 C 228.308594 164.015625 228.625 163.804688 228.902344 163.527344 L 258.453125 133.90625 C 258.726562 133.628906 258.941406 133.308594 259.089844 132.949219 C 259.238281 132.585938 259.3125 132.210938 259.3125 131.820312 C 259.3125 131.425781 259.238281 131.050781 259.089844 130.6875 C 258.941406 130.328125 258.726562 130.007812 258.453125 129.730469 C 258.175781 129.457031 257.859375 129.242188 257.496094 129.09375 C 257.136719 128.941406 256.761719 128.867188 256.371094 128.867188 C 255.980469 128.867188 255.605469 128.941406 255.242188 129.09375 C 254.882812 129.242188 254.566406 129.457031 254.289062 129.730469 Z M 173.101562 226.316406 L 162.101562 215.289062 L 103.375 274.15625 C 109.9375 280.738281 130.125 281.347656 139.902344 271.546875 L 160.289062 251.113281 C 160.726562 250.671875 160.761719 240.917969 161.121094 238.328125 L 173.101562 226.320312 Z M 175.953125 97.507812 L 175.953125 114.617188 L 158.890625 114.617188 L 158.890625 136.21875 L 175.957031 136.21875 L 175.957031 153.328125 L 197.503906 153.328125 L 197.503906 136.21875 L 214.574219 136.21875 L 214.574219 114.617188 L 197.503906 114.617188 L 197.503906 97.507812 Z M 175.953125 97.507812 " fill-opacity="1" fill-rule="evenodd"/></g></svg>