<svg xmlns="http://www.w3.org/2000/svg" xmlns:xlink="http://www.w3.org/1999/xlink" width="500" zoomAndPan="magnify" viewBox="0 0 375 374.999991" height="500" preserveAspectRatio="xMidYMid meet" version="1.0"><defs><clipPath id="2d4d69941e"><path d="M 122.839844 121 L 257 121 L 257 272.011719 L 122.839844 272.011719 Z M 122.839844 121 " clip-rule="nonzero"/></clipPath><clipPath id="e7ec8eb218"><path d="M 229 103.261719 L 269 103.261719 L 269 142 L 229 142 Z M 229 103.261719 " clip-rule="nonzero"/></clipPath></defs><g clip-path="url(#2d4d69941e)"><path fill="#000000" d="M 253.824219 154.46875 L 216.839844 123.078125 C 214.679688 121.25 212.132812 120.730469 211.121094 121.910156 L 210.941406 122.121094 C 209.945312 123.300781 210.882812 125.75 213.042969 127.578125 L 218.589844 132.289062 L 210.128906 142.332031 L 219.011719 149.867188 L 217.230469 151.964844 L 208.347656 144.425781 L 201.0625 153.074219 L 209.945312 160.613281 L 208.167969 162.738281 L 199.285156 155.199219 L 192 163.847656 L 200.882812 171.386719 L 199.101562 173.511719 L 190.21875 165.972656 L 182.933594 174.621094 L 191.816406 182.160156 L 190.039062 184.28125 L 181.15625 176.746094 L 173.871094 185.394531 L 182.753906 192.933594 L 180.972656 195.054688 L 172.089844 187.515625 L 164.804688 196.167969 L 173.6875 203.703125 L 171.910156 205.828125 L 163.027344 198.289062 L 155.742188 206.9375 L 164.625 214.476562 L 162.84375 216.601562 L 153.960938 209.0625 L 143.609375 221.355469 L 149.5625 226.402344 L 139.320312 238.554688 L 145.375 243.6875 L 122.859375 270.410156 L 124.738281 272.011719 L 147.25 245.289062 L 153.304688 250.425781 L 163.542969 238.273438 L 169.5 243.320312 L 244.523438 154.257812 L 250.070312 158.96875 C 252.226562 160.796875 254.777344 161.316406 255.785156 160.136719 L 255.96875 159.925781 C 256.921875 158.730469 255.980469 156.296875 253.824219 154.46875 Z M 253.824219 154.46875 " fill-opacity="1" fill-rule="nonzero"/></g><g clip-path="url(#e7ec8eb218)"><path fill="#000000" d="M 268.128906 128.746094 L 238.960938 103.980469 C 238.121094 103.261719 236.859375 103.375 236.15625 104.21875 C 235.445312 105.0625 235.554688 106.328125 236.394531 107.03125 L 241.859375 111.671875 L 229.433594 126.425781 L 247.660156 141.910156 L 260.085938 127.15625 L 265.550781 131.796875 C 266.390625 132.515625 267.652344 132.402344 268.351562 131.558594 C 269.066406 130.726562 268.96875 129.460938 268.128906 128.746094 Z M 268.128906 128.746094 " fill-opacity="1" fill-rule="nonzero"/></g></svg>